<?xml version="1.0" encoding="UTF-8" standalone="no"?>
<!DOCTYPE svg PUBLIC "-//W3C//DTD SVG 1.1//EN"
 "http://www.w3.org/Graphics/SVG/1.1/DTD/svg11.dtd">
<!-- Generated by graphviz version 6.0.2 (20221011.1828)
 -->
<!-- Title: structs Pages: 1 -->
<svg width="347pt" height="91pt"
 viewBox="0.00 0.00 347.00 91.00" xmlns="http://www.w3.org/2000/svg" xmlns:xlink="http://www.w3.org/1999/xlink">
<g id="graph0" class="graph" transform="scale(1 1) rotate(0) translate(4 87)">
<title>structs</title>
<polygon fill="white" stroke="none" points="-4,4 -4,-87 343,-87 343,4 -4,4"/>
<!-- label0x56343ca24090 -->
<g id="node1" class="node">
<title>label0x56343ca24090</title>
<path fill="#f593a8" stroke="black" d="M12,-0.5C12,-0.5 327,-0.5 327,-0.5 333,-0.5 339,-6.5 339,-12.5 339,-12.5 339,-34.5 339,-34.5 339,-40.5 333,-46.5 327,-46.5 327,-46.5 12,-46.5 12,-46.5 6,-46.5 0,-40.5 0,-34.5 0,-34.5 0,-12.5 0,-12.5 0,-6.5 6,-0.5 12,-0.5"/>
<text text-anchor="middle" x="70.5" y="-31.3" font-family="Times,serif" font-size="14.00">index: 0</text>
<polyline fill="none" stroke="black" points="0,-23.5 141,-23.5"/>
<text text-anchor="middle" x="70.5" y="-8.3" font-family="Times,serif" font-size="14.00">addr: 0x56343ca24090</text>
<polyline fill="none" stroke="black" points="141,-0.5 141,-46.5"/>
<text text-anchor="middle" x="178" y="-19.8" font-family="Times,serif" font-size="14.00">val: 48879</text>
<polyline fill="none" stroke="black" points="215,-0.5 215,-46.5"/>
<text text-anchor="middle" x="277" y="-31.3" font-family="Times,serif" font-size="14.00">n: 0x56343ca24090</text>
<polyline fill="none" stroke="black" points="215,-23.5 339,-23.5"/>
<text text-anchor="middle" x="277" y="-8.3" font-family="Times,serif" font-size="14.00">p: 0x56343ca24090</text>
</g>
<!-- label0x56343ca24090&#45;&gt;label0x56343ca24090 -->
<g id="edge1" class="edge">
<title>label0x56343ca24090&#45;&gt;label0x56343ca24090</title>
<path fill="none" stroke="red" d="M138.1,-46.55C135.53,-56.49 146,-65 169.5,-65 184.56,-65 194.26,-61.51 198.62,-56.38"/>
<polygon fill="red" stroke="red" points="202.05,-57.08 200.9,-46.55 195.23,-55.5 202.05,-57.08"/>
</g>
<!-- label0x56343ca24090&#45;&gt;label0x56343ca24090 -->
<g id="edge2" class="edge">
<title>label0x56343ca24090&#45;&gt;label0x56343ca24090</title>
<path fill="none" stroke="blue" d="M114.15,-46.71C93.45,-64.67 111.9,-83 169.5,-83 218.55,-83 239.21,-69.71 231.48,-54.67"/>
<polygon fill="blue" stroke="blue" points="233.94,-52.15 224.85,-46.71 228.56,-56.63 233.94,-52.15"/>
</g>
</g>
</svg>
