<?xml version="1.0" encoding="UTF-8" standalone="no"?>
<!DOCTYPE svg PUBLIC "-//W3C//DTD SVG 1.1//EN"
 "http://www.w3.org/Graphics/SVG/1.1/DTD/svg11.dtd">
<!-- Generated by graphviz version 6.0.2 (20221011.1828)
 -->
<!-- Title: structs Pages: 1 -->
<svg width="345pt" height="91pt"
 viewBox="0.00 0.00 345.00 91.00" xmlns="http://www.w3.org/2000/svg" xmlns:xlink="http://www.w3.org/1999/xlink">
<g id="graph0" class="graph" transform="scale(1 1) rotate(0) translate(4 87)">
<title>structs</title>
<polygon fill="white" stroke="none" points="-4,4 -4,-87 341,-87 341,4 -4,4"/>
<!-- label0x5590f9944090 -->
<g id="node1" class="node">
<title>label0x5590f9944090</title>
<path fill="#f593a8" stroke="black" d="M12,-0.5C12,-0.5 325,-0.5 325,-0.5 331,-0.5 337,-6.5 337,-12.5 337,-12.5 337,-34.5 337,-34.5 337,-40.5 331,-46.5 325,-46.5 325,-46.5 12,-46.5 12,-46.5 6,-46.5 0,-40.5 0,-34.5 0,-34.5 0,-12.5 0,-12.5 0,-6.5 6,-0.5 12,-0.5"/>
<text text-anchor="middle" x="70" y="-31.3" font-family="Times,serif" font-size="14.00">index: 0</text>
<polyline fill="none" stroke="black" points="0,-23.5 140,-23.5"/>
<text text-anchor="middle" x="70" y="-8.3" font-family="Times,serif" font-size="14.00">addr: 0x5590f9944090</text>
<polyline fill="none" stroke="black" points="140,-0.5 140,-46.5"/>
<text text-anchor="middle" x="177" y="-19.8" font-family="Times,serif" font-size="14.00">val: 48879</text>
<polyline fill="none" stroke="black" points="214,-0.5 214,-46.5"/>
<text text-anchor="middle" x="275.5" y="-31.3" font-family="Times,serif" font-size="14.00">n: 0x5590f9944090</text>
<polyline fill="none" stroke="black" points="214,-23.5 337,-23.5"/>
<text text-anchor="middle" x="275.5" y="-8.3" font-family="Times,serif" font-size="14.00">p: 0x5590f9944090</text>
</g>
<!-- label0x5590f9944090&#45;&gt;label0x5590f9944090 -->
<g id="edge1" class="edge">
<title>label0x5590f9944090&#45;&gt;label0x5590f9944090</title>
<path fill="none" stroke="red" d="M137.28,-46.55C134.73,-56.49 145.13,-65 168.5,-65 183.47,-65 193.12,-61.51 197.45,-56.38"/>
<polygon fill="red" stroke="red" points="200.88,-57.08 199.72,-46.55 194.06,-55.5 200.88,-57.08"/>
</g>
<!-- label0x5590f9944090&#45;&gt;label0x5590f9944090 -->
<g id="edge2" class="edge">
<title>label0x5590f9944090&#45;&gt;label0x5590f9944090</title>
<path fill="none" stroke="blue" d="M113.47,-46.71C92.89,-64.67 111.24,-83 168.5,-83 217.26,-83 237.8,-69.71 230.12,-54.67"/>
<polygon fill="blue" stroke="blue" points="232.6,-52.18 223.53,-46.71 227.21,-56.64 232.6,-52.18"/>
</g>
</g>
</svg>
