<?xml version="1.0" encoding="UTF-8" standalone="no"?>
<!DOCTYPE svg PUBLIC "-//W3C//DTD SVG 1.1//EN"
 "http://www.w3.org/Graphics/SVG/1.1/DTD/svg11.dtd">
<!-- Generated by graphviz version 6.0.2 (20221011.1828)
 -->
<!-- Title: structs Pages: 1 -->
<svg width="695pt" height="62pt"
 viewBox="0.00 0.00 695.00 62.13" xmlns="http://www.w3.org/2000/svg" xmlns:xlink="http://www.w3.org/1999/xlink">
<g id="graph0" class="graph" transform="scale(1 1) rotate(0) translate(4 58.13)">
<title>structs</title>
<polygon fill="white" stroke="none" points="-4,4 -4,-58.13 691,-58.13 691,4 -4,4"/>
<!-- label0x56343ca24090 -->
<g id="node1" class="node">
<title>label0x56343ca24090</title>
<path fill="#f593a8" stroke="black" d="M12,-4C12,-4 327,-4 327,-4 333,-4 339,-10 339,-16 339,-16 339,-38 339,-38 339,-44 333,-50 327,-50 327,-50 12,-50 12,-50 6,-50 0,-44 0,-38 0,-38 0,-16 0,-16 0,-10 6,-4 12,-4"/>
<text text-anchor="middle" x="70.5" y="-34.8" font-family="Times,serif" font-size="14.00">index: 0</text>
<polyline fill="none" stroke="black" points="0,-27 141,-27"/>
<text text-anchor="middle" x="70.5" y="-11.8" font-family="Times,serif" font-size="14.00">addr: 0x56343ca24090</text>
<polyline fill="none" stroke="black" points="141,-4 141,-50"/>
<text text-anchor="middle" x="178" y="-23.3" font-family="Times,serif" font-size="14.00">val: 48879</text>
<polyline fill="none" stroke="black" points="215,-4 215,-50"/>
<text text-anchor="middle" x="277" y="-34.8" font-family="Times,serif" font-size="14.00">n: 0x56343ca24290</text>
<polyline fill="none" stroke="black" points="215,-27 339,-27"/>
<text text-anchor="middle" x="277" y="-11.8" font-family="Times,serif" font-size="14.00">p: 0x56343ca24290</text>
</g>
<!-- label0x56343ca24290 -->
<g id="node2" class="node">
<title>label0x56343ca24290</title>
<path fill="#72eb6c" stroke="black" d="M387,-4C387,-4 675,-4 675,-4 681,-4 687,-10 687,-16 687,-16 687,-38 687,-38 687,-44 681,-50 675,-50 675,-50 387,-50 387,-50 381,-50 375,-44 375,-38 375,-38 375,-16 375,-16 375,-10 381,-4 387,-4"/>
<text text-anchor="middle" x="445.5" y="-34.8" font-family="Times,serif" font-size="14.00">index: 1</text>
<polyline fill="none" stroke="black" points="375,-27 516,-27"/>
<text text-anchor="middle" x="445.5" y="-11.8" font-family="Times,serif" font-size="14.00">addr: 0x56343ca24290</text>
<polyline fill="none" stroke="black" points="516,-4 516,-50"/>
<text text-anchor="middle" x="539.5" y="-23.3" font-family="Times,serif" font-size="14.00">val: 5</text>
<polyline fill="none" stroke="black" points="563,-4 563,-50"/>
<text text-anchor="middle" x="625" y="-34.8" font-family="Times,serif" font-size="14.00">n: 0x56343ca24090</text>
<polyline fill="none" stroke="black" points="563,-27 687,-27"/>
<text text-anchor="middle" x="625" y="-11.8" font-family="Times,serif" font-size="14.00">p: 0x56343ca24090</text>
</g>
<!-- label0x56343ca24090&#45;&gt;label0x56343ca24290 -->
<g id="edge1" class="edge">
<title>label0x56343ca24090&#45;&gt;label0x56343ca24290</title>
<path fill="none" stroke="#dce6e3" stroke-dasharray="5,2" d="M251.63,-4C310.54,1.33 389.94,1.33 448.86,-4"/>
</g>
<!-- label0x56343ca24090&#45;&gt;label0x56343ca24290 -->
<g id="edge4" class="edge">
<title>label0x56343ca24090&#45;&gt;label0x56343ca24290</title>
<path fill="none" stroke="red" d="M339.2,-40.48C347.63,-40.51 356.09,-40.51 364.51,-40.46"/>
<polygon fill="red" stroke="red" points="364.78,-43.96 374.76,-40.39 364.73,-36.96 364.78,-43.96"/>
</g>
<!-- label0x56343ca24090&#45;&gt;label0x56343ca24290 -->
<g id="edge5" class="edge">
<title>label0x56343ca24090&#45;&gt;label0x56343ca24290</title>
<path fill="none" stroke="blue" d="M251.63,-50C307.21,-55.03 381.01,-55.32 438.66,-50.86"/>
<polygon fill="blue" stroke="blue" points="439.18,-54.33 448.86,-50 438.6,-47.35 439.18,-54.33"/>
</g>
<!-- label0x56343ca24290&#45;&gt;label0x56343ca24090 -->
<g id="edge2" class="edge">
<title>label0x56343ca24290&#45;&gt;label0x56343ca24090</title>
<path fill="none" stroke="red" d="M374.76,-13.61C366.29,-13.53 357.75,-13.5 349.21,-13.5"/>
<polygon fill="red" stroke="red" points="349.19,-10 339.2,-13.52 349.21,-17 349.19,-10"/>
</g>
<!-- label0x56343ca24290&#45;&gt;label0x56343ca24090 -->
<g id="edge3" class="edge">
<title>label0x56343ca24290&#45;&gt;label0x56343ca24090</title>
<path fill="none" stroke="blue" d="M374.76,-27C366.29,-27 357.75,-27 349.21,-27"/>
<polygon fill="blue" stroke="blue" points="349.2,-23.5 339.2,-27 349.2,-30.5 349.2,-23.5"/>
</g>
</g>
</svg>
