<?xml version="1.0" encoding="UTF-8" standalone="no"?>
<!DOCTYPE svg PUBLIC "-//W3C//DTD SVG 1.1//EN"
 "http://www.w3.org/Graphics/SVG/1.1/DTD/svg11.dtd">
<!-- Generated by graphviz version 6.0.2 (20221011.1828)
 -->
<!-- Title: structs Pages: 1 -->
<svg width="691pt" height="62pt"
 viewBox="0.00 0.00 691.00 62.13" xmlns="http://www.w3.org/2000/svg" xmlns:xlink="http://www.w3.org/1999/xlink">
<g id="graph0" class="graph" transform="scale(1 1) rotate(0) translate(4 58.13)">
<title>structs</title>
<polygon fill="white" stroke="none" points="-4,4 -4,-58.13 687,-58.13 687,4 -4,4"/>
<!-- label0x5590f9944090 -->
<g id="node1" class="node">
<title>label0x5590f9944090</title>
<path fill="#f593a8" stroke="black" d="M12,-4C12,-4 325,-4 325,-4 331,-4 337,-10 337,-16 337,-16 337,-38 337,-38 337,-44 331,-50 325,-50 325,-50 12,-50 12,-50 6,-50 0,-44 0,-38 0,-38 0,-16 0,-16 0,-10 6,-4 12,-4"/>
<text text-anchor="middle" x="70" y="-34.8" font-family="Times,serif" font-size="14.00">index: 0</text>
<polyline fill="none" stroke="black" points="0,-27 140,-27"/>
<text text-anchor="middle" x="70" y="-11.8" font-family="Times,serif" font-size="14.00">addr: 0x5590f9944090</text>
<polyline fill="none" stroke="black" points="140,-4 140,-50"/>
<text text-anchor="middle" x="177" y="-23.3" font-family="Times,serif" font-size="14.00">val: 48879</text>
<polyline fill="none" stroke="black" points="214,-4 214,-50"/>
<text text-anchor="middle" x="275.5" y="-34.8" font-family="Times,serif" font-size="14.00">n: 0x5590f9944290</text>
<polyline fill="none" stroke="black" points="214,-27 337,-27"/>
<text text-anchor="middle" x="275.5" y="-11.8" font-family="Times,serif" font-size="14.00">p: 0x5590f9944290</text>
</g>
<!-- label0x5590f9944290 -->
<g id="node2" class="node">
<title>label0x5590f9944290</title>
<path fill="#72eb6c" stroke="black" d="M385,-4C385,-4 671,-4 671,-4 677,-4 683,-10 683,-16 683,-16 683,-38 683,-38 683,-44 677,-50 671,-50 671,-50 385,-50 385,-50 379,-50 373,-44 373,-38 373,-38 373,-16 373,-16 373,-10 379,-4 385,-4"/>
<text text-anchor="middle" x="443" y="-34.8" font-family="Times,serif" font-size="14.00">index: 1</text>
<polyline fill="none" stroke="black" points="373,-27 513,-27"/>
<text text-anchor="middle" x="443" y="-11.8" font-family="Times,serif" font-size="14.00">addr: 0x5590f9944290</text>
<polyline fill="none" stroke="black" points="513,-4 513,-50"/>
<text text-anchor="middle" x="536.5" y="-23.3" font-family="Times,serif" font-size="14.00">val: 5</text>
<polyline fill="none" stroke="black" points="560,-4 560,-50"/>
<text text-anchor="middle" x="621.5" y="-34.8" font-family="Times,serif" font-size="14.00">n: 0x5590f9944090</text>
<polyline fill="none" stroke="black" points="560,-27 683,-27"/>
<text text-anchor="middle" x="621.5" y="-11.8" font-family="Times,serif" font-size="14.00">p: 0x5590f9944090</text>
</g>
<!-- label0x5590f9944090&#45;&gt;label0x5590f9944290 -->
<g id="edge1" class="edge">
<title>label0x5590f9944090&#45;&gt;label0x5590f9944290</title>
<path fill="none" stroke="#dce6e3" stroke-dasharray="5,2" d="M250.18,-4C308.77,1.33 387.72,1.33 446.31,-4"/>
</g>
<!-- label0x5590f9944090&#45;&gt;label0x5590f9944290 -->
<g id="edge4" class="edge">
<title>label0x5590f9944090&#45;&gt;label0x5590f9944290</title>
<path fill="none" stroke="red" d="M337.26,-40.48C345.71,-40.51 354.19,-40.51 362.63,-40.46"/>
<polygon fill="red" stroke="red" points="362.92,-43.96 372.89,-40.39 362.87,-36.96 362.92,-43.96"/>
</g>
<!-- label0x5590f9944090&#45;&gt;label0x5590f9944290 -->
<g id="edge5" class="edge">
<title>label0x5590f9944090&#45;&gt;label0x5590f9944290</title>
<path fill="none" stroke="blue" d="M250.18,-50C305.45,-55.03 378.84,-55.32 436.16,-50.86"/>
<polygon fill="blue" stroke="blue" points="436.64,-54.33 446.31,-50 436.05,-47.36 436.64,-54.33"/>
</g>
<!-- label0x5590f9944290&#45;&gt;label0x5590f9944090 -->
<g id="edge2" class="edge">
<title>label0x5590f9944290&#45;&gt;label0x5590f9944090</title>
<path fill="none" stroke="red" d="M372.89,-13.61C364.41,-13.54 355.85,-13.5 347.3,-13.5"/>
<polygon fill="red" stroke="red" points="347.25,-10 337.26,-13.52 347.27,-17 347.25,-10"/>
</g>
<!-- label0x5590f9944290&#45;&gt;label0x5590f9944090 -->
<g id="edge3" class="edge">
<title>label0x5590f9944290&#45;&gt;label0x5590f9944090</title>
<path fill="none" stroke="blue" d="M372.89,-27C364.41,-27 355.85,-27 347.3,-27"/>
<polygon fill="blue" stroke="blue" points="347.26,-23.5 337.26,-27 347.26,-30.5 347.26,-23.5"/>
</g>
</g>
</svg>
