<?xml version="1.0" encoding="UTF-8" standalone="no"?>
<!DOCTYPE svg PUBLIC "-//W3C//DTD SVG 1.1//EN"
 "http://www.w3.org/Graphics/SVG/1.1/DTD/svg11.dtd">
<!-- Generated by graphviz version 6.0.2 (20221011.1828)
 -->
<!-- Title: structs Pages: 1 -->
<svg width="1043pt" height="81pt"
 viewBox="0.00 0.00 1043.00 80.89" xmlns="http://www.w3.org/2000/svg" xmlns:xlink="http://www.w3.org/1999/xlink">
<g id="graph0" class="graph" transform="scale(1 1) rotate(0) translate(4 76.89)">
<title>structs</title>
<polygon fill="white" stroke="none" points="-4,4 -4,-76.89 1039,-76.89 1039,4 -4,4"/>
<!-- label0x56343ca24090 -->
<g id="node1" class="node">
<title>label0x56343ca24090</title>
<path fill="#f593a8" stroke="black" d="M12,-26.39C12,-26.39 327,-26.39 327,-26.39 333,-26.39 339,-32.39 339,-38.39 339,-38.39 339,-60.39 339,-60.39 339,-66.39 333,-72.39 327,-72.39 327,-72.39 12,-72.39 12,-72.39 6,-72.39 0,-66.39 0,-60.39 0,-60.39 0,-38.39 0,-38.39 0,-32.39 6,-26.39 12,-26.39"/>
<text text-anchor="middle" x="70.5" y="-57.19" font-family="Times,serif" font-size="14.00">index: 0</text>
<polyline fill="none" stroke="black" points="0,-49.39 141,-49.39"/>
<text text-anchor="middle" x="70.5" y="-34.19" font-family="Times,serif" font-size="14.00">addr: 0x56343ca24090</text>
<polyline fill="none" stroke="black" points="141,-26.39 141,-72.39"/>
<text text-anchor="middle" x="178" y="-45.69" font-family="Times,serif" font-size="14.00">val: 48879</text>
<polyline fill="none" stroke="black" points="215,-26.39 215,-72.39"/>
<text text-anchor="middle" x="277" y="-57.19" font-family="Times,serif" font-size="14.00">n: 0x56343ca242b0</text>
<polyline fill="none" stroke="black" points="215,-49.39 339,-49.39"/>
<text text-anchor="middle" x="277" y="-34.19" font-family="Times,serif" font-size="14.00">p: 0x56343ca24290</text>
</g>
<!-- label0x56343ca242b0 -->
<g id="node2" class="node">
<title>label0x56343ca242b0</title>
<path fill="#72eb6c" stroke="black" d="M387,-26.39C387,-26.39 675,-26.39 675,-26.39 681,-26.39 687,-32.39 687,-38.39 687,-38.39 687,-60.39 687,-60.39 687,-66.39 681,-72.39 675,-72.39 675,-72.39 387,-72.39 387,-72.39 381,-72.39 375,-66.39 375,-60.39 375,-60.39 375,-38.39 375,-38.39 375,-32.39 381,-26.39 387,-26.39"/>
<text text-anchor="middle" x="445.5" y="-57.19" font-family="Times,serif" font-size="14.00">index: 1</text>
<polyline fill="none" stroke="black" points="375,-49.39 516,-49.39"/>
<text text-anchor="middle" x="445.5" y="-34.19" font-family="Times,serif" font-size="14.00">addr: 0x56343ca242b0</text>
<polyline fill="none" stroke="black" points="516,-26.39 516,-72.39"/>
<text text-anchor="middle" x="539.5" y="-45.69" font-family="Times,serif" font-size="14.00">val: 6</text>
<polyline fill="none" stroke="black" points="563,-26.39 563,-72.39"/>
<text text-anchor="middle" x="625" y="-57.19" font-family="Times,serif" font-size="14.00">n: 0x56343ca24290</text>
<polyline fill="none" stroke="black" points="563,-49.39 687,-49.39"/>
<text text-anchor="middle" x="625" y="-34.19" font-family="Times,serif" font-size="14.00">p: 0x56343ca24090</text>
</g>
<!-- label0x56343ca24090&#45;&gt;label0x56343ca242b0 -->
<g id="edge1" class="edge">
<title>label0x56343ca24090&#45;&gt;label0x56343ca242b0</title>
<path fill="none" stroke="#dce6e3" stroke-dasharray="5,2" d="M339.2,-35.91C351.06,-35.86 362.98,-35.89 374.76,-36"/>
</g>
<!-- label0x56343ca24090&#45;&gt;label0x56343ca242b0 -->
<g id="edge7" class="edge">
<title>label0x56343ca24090&#45;&gt;label0x56343ca242b0</title>
<path fill="none" stroke="red" d="M339.2,-62.87C347.63,-62.9 356.09,-62.9 364.51,-62.85"/>
<polygon fill="red" stroke="red" points="364.78,-66.35 374.76,-62.78 364.73,-59.35 364.78,-66.35"/>
</g>
<!-- label0x56343ca24290 -->
<g id="node3" class="node">
<title>label0x56343ca24290</title>
<path fill="#72eb6c" stroke="black" d="M735,-26.39C735,-26.39 1023,-26.39 1023,-26.39 1029,-26.39 1035,-32.39 1035,-38.39 1035,-38.39 1035,-60.39 1035,-60.39 1035,-66.39 1029,-72.39 1023,-72.39 1023,-72.39 735,-72.39 735,-72.39 729,-72.39 723,-66.39 723,-60.39 723,-60.39 723,-38.39 723,-38.39 723,-32.39 729,-26.39 735,-26.39"/>
<text text-anchor="middle" x="793.5" y="-57.19" font-family="Times,serif" font-size="14.00">index: 2</text>
<polyline fill="none" stroke="black" points="723,-49.39 864,-49.39"/>
<text text-anchor="middle" x="793.5" y="-34.19" font-family="Times,serif" font-size="14.00">addr: 0x56343ca24290</text>
<polyline fill="none" stroke="black" points="864,-26.39 864,-72.39"/>
<text text-anchor="middle" x="887.5" y="-45.69" font-family="Times,serif" font-size="14.00">val: 5</text>
<polyline fill="none" stroke="black" points="911,-26.39 911,-72.39"/>
<text text-anchor="middle" x="973" y="-57.19" font-family="Times,serif" font-size="14.00">n: 0x56343ca24090</text>
<polyline fill="none" stroke="black" points="911,-49.39 1035,-49.39"/>
<text text-anchor="middle" x="973" y="-34.19" font-family="Times,serif" font-size="14.00">p: 0x56343ca242b0</text>
</g>
<!-- label0x56343ca24090&#45;&gt;label0x56343ca24290 -->
<g id="edge8" class="edge">
<title>label0x56343ca24090&#45;&gt;label0x56343ca24290</title>
<path fill="none" stroke="blue" d="M247.37,-26.36C285.58,-18.79 332.54,-11.69 375,-8.39 513.25,2.36 548.81,3.11 687,-8.39 723.14,-11.4 762.73,-17.55 796.45,-24.34"/>
<polygon fill="blue" stroke="blue" points="795.75,-27.77 806.25,-26.36 797.17,-20.91 795.75,-27.77"/>
</g>
<!-- label0x56343ca242b0&#45;&gt;label0x56343ca24090 -->
<g id="edge4" class="edge">
<title>label0x56343ca242b0&#45;&gt;label0x56343ca24090</title>
<path fill="none" stroke="blue" d="M374.76,-49.39C366.29,-49.39 357.75,-49.39 349.21,-49.39"/>
<polygon fill="blue" stroke="blue" points="349.2,-45.89 339.2,-49.39 349.2,-52.89 349.2,-45.89"/>
</g>
<!-- label0x56343ca242b0&#45;&gt;label0x56343ca24290 -->
<g id="edge2" class="edge">
<title>label0x56343ca242b0&#45;&gt;label0x56343ca24290</title>
<path fill="none" stroke="#dce6e3" stroke-dasharray="5,2" d="M687.04,-35.95C698.9,-35.87 710.88,-35.87 722.75,-35.95"/>
</g>
<!-- label0x56343ca242b0&#45;&gt;label0x56343ca24290 -->
<g id="edge3" class="edge">
<title>label0x56343ca242b0&#45;&gt;label0x56343ca24290</title>
<path fill="none" stroke="red" d="M687.04,-49.39C695.56,-49.39 704.15,-49.39 712.72,-49.39"/>
<polygon fill="red" stroke="red" points="712.75,-52.89 722.75,-49.39 712.75,-45.89 712.75,-52.89"/>
</g>
<!-- label0x56343ca24290&#45;&gt;label0x56343ca24090 -->
<g id="edge5" class="edge">
<title>label0x56343ca24290&#45;&gt;label0x56343ca24090</title>
<path fill="none" stroke="red" d="M722.95,-30.18C710.82,-28.67 698.73,-27.36 687,-26.39 548.81,-14.89 513.25,-15.64 375,-26.39 366.47,-27.05 357.77,-27.87 348.99,-28.8"/>
<polygon fill="red" stroke="red" points="348.6,-25.32 339.05,-29.89 349.37,-32.28 348.6,-25.32"/>
</g>
<!-- label0x56343ca24290&#45;&gt;label0x56343ca242b0 -->
<g id="edge6" class="edge">
<title>label0x56343ca24290&#45;&gt;label0x56343ca242b0</title>
<path fill="none" stroke="blue" d="M722.75,-62.83C714.22,-62.89 705.63,-62.9 697.07,-62.88"/>
<polygon fill="blue" stroke="blue" points="697.05,-59.38 687.04,-62.82 697.02,-66.38 697.05,-59.38"/>
</g>
</g>
</svg>
