<?xml version="1.0" encoding="UTF-8" standalone="no"?>
<!DOCTYPE svg PUBLIC "-//W3C//DTD SVG 1.1//EN"
 "http://www.w3.org/Graphics/SVG/1.1/DTD/svg11.dtd">
<!-- Generated by graphviz version 6.0.2 (20221011.1828)
 -->
<!-- Title: structs Pages: 1 -->
<svg width="1391pt" height="92pt"
 viewBox="0.00 0.00 1391.00 91.79" xmlns="http://www.w3.org/2000/svg" xmlns:xlink="http://www.w3.org/1999/xlink">
<g id="graph0" class="graph" transform="scale(1 1) rotate(0) translate(4 87.79)">
<title>structs</title>
<polygon fill="white" stroke="none" points="-4,4 -4,-87.79 1387,-87.79 1387,4 -4,4"/>
<!-- label0x56343ca24090 -->
<g id="node1" class="node">
<title>label0x56343ca24090</title>
<path fill="#f593a8" stroke="black" d="M12,-37.29C12,-37.29 327,-37.29 327,-37.29 333,-37.29 339,-43.29 339,-49.29 339,-49.29 339,-71.29 339,-71.29 339,-77.29 333,-83.29 327,-83.29 327,-83.29 12,-83.29 12,-83.29 6,-83.29 0,-77.29 0,-71.29 0,-71.29 0,-49.29 0,-49.29 0,-43.29 6,-37.29 12,-37.29"/>
<text text-anchor="middle" x="70.5" y="-68.09" font-family="Times,serif" font-size="14.00">index: 0</text>
<polyline fill="none" stroke="black" points="0,-60.29 141,-60.29"/>
<text text-anchor="middle" x="70.5" y="-45.09" font-family="Times,serif" font-size="14.00">addr: 0x56343ca24090</text>
<polyline fill="none" stroke="black" points="141,-37.29 141,-83.29"/>
<text text-anchor="middle" x="178" y="-56.59" font-family="Times,serif" font-size="14.00">val: 48879</text>
<polyline fill="none" stroke="black" points="215,-37.29 215,-83.29"/>
<text text-anchor="middle" x="277" y="-68.09" font-family="Times,serif" font-size="14.00">n: 0x56343ca242d0</text>
<polyline fill="none" stroke="black" points="215,-60.29 339,-60.29"/>
<text text-anchor="middle" x="277" y="-45.09" font-family="Times,serif" font-size="14.00">p: 0x56343ca24290</text>
</g>
<!-- label0x56343ca242d0 -->
<g id="node2" class="node">
<title>label0x56343ca242d0</title>
<path fill="#72eb6c" stroke="black" d="M387,-37.29C387,-37.29 675,-37.29 675,-37.29 681,-37.29 687,-43.29 687,-49.29 687,-49.29 687,-71.29 687,-71.29 687,-77.29 681,-83.29 675,-83.29 675,-83.29 387,-83.29 387,-83.29 381,-83.29 375,-77.29 375,-71.29 375,-71.29 375,-49.29 375,-49.29 375,-43.29 381,-37.29 387,-37.29"/>
<text text-anchor="middle" x="445.5" y="-68.09" font-family="Times,serif" font-size="14.00">index: 1</text>
<polyline fill="none" stroke="black" points="375,-60.29 516,-60.29"/>
<text text-anchor="middle" x="445.5" y="-45.09" font-family="Times,serif" font-size="14.00">addr: 0x56343ca242d0</text>
<polyline fill="none" stroke="black" points="516,-37.29 516,-83.29"/>
<text text-anchor="middle" x="539.5" y="-56.59" font-family="Times,serif" font-size="14.00">val: 7</text>
<polyline fill="none" stroke="black" points="563,-37.29 563,-83.29"/>
<text text-anchor="middle" x="625" y="-68.09" font-family="Times,serif" font-size="14.00">n: 0x56343ca242b0</text>
<polyline fill="none" stroke="black" points="563,-60.29 687,-60.29"/>
<text text-anchor="middle" x="625" y="-45.09" font-family="Times,serif" font-size="14.00">p: 0x56343ca24090</text>
</g>
<!-- label0x56343ca24090&#45;&gt;label0x56343ca242d0 -->
<g id="edge1" class="edge">
<title>label0x56343ca24090&#45;&gt;label0x56343ca242d0</title>
<path fill="none" stroke="#dce6e3" stroke-dasharray="5,2" d="M339.2,-46.81C351.06,-46.76 362.98,-46.79 374.76,-46.9"/>
</g>
<!-- label0x56343ca24090&#45;&gt;label0x56343ca242d0 -->
<g id="edge10" class="edge">
<title>label0x56343ca24090&#45;&gt;label0x56343ca242d0</title>
<path fill="none" stroke="red" d="M339.2,-73.77C347.63,-73.8 356.09,-73.8 364.51,-73.75"/>
<polygon fill="red" stroke="red" points="364.78,-77.25 374.76,-73.68 364.73,-70.25 364.78,-77.25"/>
</g>
<!-- label0x56343ca24290 -->
<g id="node4" class="node">
<title>label0x56343ca24290</title>
<path fill="#72eb6c" stroke="black" d="M1083,-37.29C1083,-37.29 1371,-37.29 1371,-37.29 1377,-37.29 1383,-43.29 1383,-49.29 1383,-49.29 1383,-71.29 1383,-71.29 1383,-77.29 1377,-83.29 1371,-83.29 1371,-83.29 1083,-83.29 1083,-83.29 1077,-83.29 1071,-77.29 1071,-71.29 1071,-71.29 1071,-49.29 1071,-49.29 1071,-43.29 1077,-37.29 1083,-37.29"/>
<text text-anchor="middle" x="1141.5" y="-68.09" font-family="Times,serif" font-size="14.00">index: 3</text>
<polyline fill="none" stroke="black" points="1071,-60.29 1212,-60.29"/>
<text text-anchor="middle" x="1141.5" y="-45.09" font-family="Times,serif" font-size="14.00">addr: 0x56343ca24290</text>
<polyline fill="none" stroke="black" points="1212,-37.29 1212,-83.29"/>
<text text-anchor="middle" x="1235.5" y="-56.59" font-family="Times,serif" font-size="14.00">val: 5</text>
<polyline fill="none" stroke="black" points="1259,-37.29 1259,-83.29"/>
<text text-anchor="middle" x="1321" y="-68.09" font-family="Times,serif" font-size="14.00">n: 0x56343ca24090</text>
<polyline fill="none" stroke="black" points="1259,-60.29 1383,-60.29"/>
<text text-anchor="middle" x="1321" y="-45.09" font-family="Times,serif" font-size="14.00">p: 0x56343ca242b0</text>
</g>
<!-- label0x56343ca24090&#45;&gt;label0x56343ca24290 -->
<g id="edge11" class="edge">
<title>label0x56343ca24090&#45;&gt;label0x56343ca24290</title>
<path fill="none" stroke="blue" d="M244.94,-37.29C283.57,-29.33 331.62,-21.77 375,-18.29 667.4,5.15 742.74,6.77 1035,-18.29 1071.77,-21.44 1112.09,-27.95 1146.17,-35.07"/>
<polygon fill="blue" stroke="blue" points="1145.56,-38.52 1156.07,-37.19 1147.03,-31.67 1145.56,-38.52"/>
</g>
<!-- label0x56343ca242d0&#45;&gt;label0x56343ca24090 -->
<g id="edge5" class="edge">
<title>label0x56343ca242d0&#45;&gt;label0x56343ca24090</title>
<path fill="none" stroke="blue" d="M374.76,-60.29C366.29,-60.29 357.75,-60.29 349.21,-60.29"/>
<polygon fill="blue" stroke="blue" points="349.2,-56.79 339.2,-60.29 349.2,-63.79 349.2,-56.79"/>
</g>
<!-- label0x56343ca242b0 -->
<g id="node3" class="node">
<title>label0x56343ca242b0</title>
<path fill="#72eb6c" stroke="black" d="M735,-37.29C735,-37.29 1023,-37.29 1023,-37.29 1029,-37.29 1035,-43.29 1035,-49.29 1035,-49.29 1035,-71.29 1035,-71.29 1035,-77.29 1029,-83.29 1023,-83.29 1023,-83.29 735,-83.29 735,-83.29 729,-83.29 723,-77.29 723,-71.29 723,-71.29 723,-49.29 723,-49.29 723,-43.29 729,-37.29 735,-37.29"/>
<text text-anchor="middle" x="793.5" y="-68.09" font-family="Times,serif" font-size="14.00">index: 2</text>
<polyline fill="none" stroke="black" points="723,-60.29 864,-60.29"/>
<text text-anchor="middle" x="793.5" y="-45.09" font-family="Times,serif" font-size="14.00">addr: 0x56343ca242b0</text>
<polyline fill="none" stroke="black" points="864,-37.29 864,-83.29"/>
<text text-anchor="middle" x="887.5" y="-56.59" font-family="Times,serif" font-size="14.00">val: 6</text>
<polyline fill="none" stroke="black" points="911,-37.29 911,-83.29"/>
<text text-anchor="middle" x="973" y="-68.09" font-family="Times,serif" font-size="14.00">n: 0x56343ca24290</text>
<polyline fill="none" stroke="black" points="911,-60.29 1035,-60.29"/>
<text text-anchor="middle" x="973" y="-45.09" font-family="Times,serif" font-size="14.00">p: 0x56343ca242d0</text>
</g>
<!-- label0x56343ca242d0&#45;&gt;label0x56343ca242b0 -->
<g id="edge2" class="edge">
<title>label0x56343ca242d0&#45;&gt;label0x56343ca242b0</title>
<path fill="none" stroke="#dce6e3" stroke-dasharray="5,2" d="M687.04,-46.85C698.9,-46.77 710.88,-46.77 722.75,-46.85"/>
</g>
<!-- label0x56343ca242d0&#45;&gt;label0x56343ca242b0 -->
<g id="edge4" class="edge">
<title>label0x56343ca242d0&#45;&gt;label0x56343ca242b0</title>
<path fill="none" stroke="red" d="M687.04,-60.29C695.56,-60.29 704.15,-60.29 712.72,-60.29"/>
<polygon fill="red" stroke="red" points="712.75,-63.79 722.75,-60.29 712.75,-56.79 712.75,-63.79"/>
</g>
<!-- label0x56343ca242b0&#45;&gt;label0x56343ca242d0 -->
<g id="edge7" class="edge">
<title>label0x56343ca242b0&#45;&gt;label0x56343ca242d0</title>
<path fill="none" stroke="blue" d="M722.75,-73.73C714.22,-73.79 705.63,-73.8 697.07,-73.78"/>
<polygon fill="blue" stroke="blue" points="697.05,-70.28 687.04,-73.72 697.02,-77.28 697.05,-70.28"/>
</g>
<!-- label0x56343ca242b0&#45;&gt;label0x56343ca24290 -->
<g id="edge3" class="edge">
<title>label0x56343ca242b0&#45;&gt;label0x56343ca24290</title>
<path fill="none" stroke="#dce6e3" stroke-dasharray="5,2" d="M1035.04,-46.85C1046.9,-46.77 1058.88,-46.77 1070.75,-46.85"/>
</g>
<!-- label0x56343ca242b0&#45;&gt;label0x56343ca24290 -->
<g id="edge6" class="edge">
<title>label0x56343ca242b0&#45;&gt;label0x56343ca24290</title>
<path fill="none" stroke="red" d="M1035.04,-60.29C1043.56,-60.29 1052.15,-60.29 1060.72,-60.29"/>
<polygon fill="red" stroke="red" points="1060.75,-63.79 1070.75,-60.29 1060.75,-56.79 1060.75,-63.79"/>
</g>
<!-- label0x56343ca24290&#45;&gt;label0x56343ca24090 -->
<g id="edge8" class="edge">
<title>label0x56343ca24290&#45;&gt;label0x56343ca24090</title>
<path fill="none" stroke="red" d="M1070.97,-40.2C1058.83,-38.64 1046.73,-37.3 1035,-36.29 742.74,-11.23 667.4,-12.85 375,-36.29 366.47,-36.97 357.76,-37.82 348.97,-38.77"/>
<polygon fill="red" stroke="red" points="348.57,-35.3 339.03,-39.9 349.36,-42.25 348.57,-35.3"/>
</g>
<!-- label0x56343ca24290&#45;&gt;label0x56343ca242b0 -->
<g id="edge9" class="edge">
<title>label0x56343ca24290&#45;&gt;label0x56343ca242b0</title>
<path fill="none" stroke="blue" d="M1070.75,-73.73C1062.22,-73.79 1053.63,-73.8 1045.07,-73.78"/>
<polygon fill="blue" stroke="blue" points="1045.05,-70.28 1035.04,-73.72 1045.02,-77.28 1045.05,-70.28"/>
</g>
</g>
</svg>
