<?xml version="1.0" encoding="UTF-8" standalone="no"?>
<!DOCTYPE svg PUBLIC "-//W3C//DTD SVG 1.1//EN"
 "http://www.w3.org/Graphics/SVG/1.1/DTD/svg11.dtd">
<!-- Generated by graphviz version 6.0.2 (20221011.1828)
 -->
<!-- Title: structs Pages: 1 -->
<svg width="1383pt" height="92pt"
 viewBox="0.00 0.00 1383.00 91.77" xmlns="http://www.w3.org/2000/svg" xmlns:xlink="http://www.w3.org/1999/xlink">
<g id="graph0" class="graph" transform="scale(1 1) rotate(0) translate(4 87.77)">
<title>structs</title>
<polygon fill="white" stroke="none" points="-4,4 -4,-87.77 1379,-87.77 1379,4 -4,4"/>
<!-- label0x5590f9944090 -->
<g id="node1" class="node">
<title>label0x5590f9944090</title>
<path fill="#f593a8" stroke="black" d="M12,-37.27C12,-37.27 325,-37.27 325,-37.27 331,-37.27 337,-43.27 337,-49.27 337,-49.27 337,-71.27 337,-71.27 337,-77.27 331,-83.27 325,-83.27 325,-83.27 12,-83.27 12,-83.27 6,-83.27 0,-77.27 0,-71.27 0,-71.27 0,-49.27 0,-49.27 0,-43.27 6,-37.27 12,-37.27"/>
<text text-anchor="middle" x="70" y="-68.07" font-family="Times,serif" font-size="14.00">index: 0</text>
<polyline fill="none" stroke="black" points="0,-60.27 140,-60.27"/>
<text text-anchor="middle" x="70" y="-45.07" font-family="Times,serif" font-size="14.00">addr: 0x5590f9944090</text>
<polyline fill="none" stroke="black" points="140,-37.27 140,-83.27"/>
<text text-anchor="middle" x="177" y="-56.57" font-family="Times,serif" font-size="14.00">val: 48879</text>
<polyline fill="none" stroke="black" points="214,-37.27 214,-83.27"/>
<text text-anchor="middle" x="275.5" y="-68.07" font-family="Times,serif" font-size="14.00">n: 0x5590f99442d0</text>
<polyline fill="none" stroke="black" points="214,-60.27 337,-60.27"/>
<text text-anchor="middle" x="275.5" y="-45.07" font-family="Times,serif" font-size="14.00">p: 0x5590f9944290</text>
</g>
<!-- label0x5590f99442d0 -->
<g id="node2" class="node">
<title>label0x5590f99442d0</title>
<path fill="#72eb6c" stroke="black" d="M385,-37.27C385,-37.27 671,-37.27 671,-37.27 677,-37.27 683,-43.27 683,-49.27 683,-49.27 683,-71.27 683,-71.27 683,-77.27 677,-83.27 671,-83.27 671,-83.27 385,-83.27 385,-83.27 379,-83.27 373,-77.27 373,-71.27 373,-71.27 373,-49.27 373,-49.27 373,-43.27 379,-37.27 385,-37.27"/>
<text text-anchor="middle" x="443" y="-68.07" font-family="Times,serif" font-size="14.00">index: 1</text>
<polyline fill="none" stroke="black" points="373,-60.27 513,-60.27"/>
<text text-anchor="middle" x="443" y="-45.07" font-family="Times,serif" font-size="14.00">addr: 0x5590f99442d0</text>
<polyline fill="none" stroke="black" points="513,-37.27 513,-83.27"/>
<text text-anchor="middle" x="536.5" y="-56.57" font-family="Times,serif" font-size="14.00">val: 7</text>
<polyline fill="none" stroke="black" points="560,-37.27 560,-83.27"/>
<text text-anchor="middle" x="621.5" y="-68.07" font-family="Times,serif" font-size="14.00">n: 0x5590f99442b0</text>
<polyline fill="none" stroke="black" points="560,-60.27 683,-60.27"/>
<text text-anchor="middle" x="621.5" y="-45.07" font-family="Times,serif" font-size="14.00">p: 0x5590f9944090</text>
</g>
<!-- label0x5590f9944090&#45;&gt;label0x5590f99442d0 -->
<g id="edge1" class="edge">
<title>label0x5590f9944090&#45;&gt;label0x5590f99442d0</title>
<path fill="none" stroke="#dce6e3" stroke-dasharray="5,2" d="M337.26,-46.79C349.14,-46.74 361.09,-46.77 372.89,-46.88"/>
</g>
<!-- label0x5590f9944090&#45;&gt;label0x5590f99442d0 -->
<g id="edge10" class="edge">
<title>label0x5590f9944090&#45;&gt;label0x5590f99442d0</title>
<path fill="none" stroke="red" d="M337.26,-73.75C345.71,-73.78 354.19,-73.78 362.63,-73.73"/>
<polygon fill="red" stroke="red" points="362.92,-77.23 372.89,-73.66 362.87,-70.23 362.92,-77.23"/>
</g>
<!-- label0x5590f9944290 -->
<g id="node4" class="node">
<title>label0x5590f9944290</title>
<path fill="#72eb6c" stroke="black" d="M1077,-37.27C1077,-37.27 1363,-37.27 1363,-37.27 1369,-37.27 1375,-43.27 1375,-49.27 1375,-49.27 1375,-71.27 1375,-71.27 1375,-77.27 1369,-83.27 1363,-83.27 1363,-83.27 1077,-83.27 1077,-83.27 1071,-83.27 1065,-77.27 1065,-71.27 1065,-71.27 1065,-49.27 1065,-49.27 1065,-43.27 1071,-37.27 1077,-37.27"/>
<text text-anchor="middle" x="1135" y="-68.07" font-family="Times,serif" font-size="14.00">index: 3</text>
<polyline fill="none" stroke="black" points="1065,-60.27 1205,-60.27"/>
<text text-anchor="middle" x="1135" y="-45.07" font-family="Times,serif" font-size="14.00">addr: 0x5590f9944290</text>
<polyline fill="none" stroke="black" points="1205,-37.27 1205,-83.27"/>
<text text-anchor="middle" x="1228.5" y="-56.57" font-family="Times,serif" font-size="14.00">val: 5</text>
<polyline fill="none" stroke="black" points="1252,-37.27 1252,-83.27"/>
<text text-anchor="middle" x="1313.5" y="-68.07" font-family="Times,serif" font-size="14.00">n: 0x5590f9944090</text>
<polyline fill="none" stroke="black" points="1252,-60.27 1375,-60.27"/>
<text text-anchor="middle" x="1313.5" y="-45.07" font-family="Times,serif" font-size="14.00">p: 0x5590f99442b0</text>
</g>
<!-- label0x5590f9944090&#45;&gt;label0x5590f9944290 -->
<g id="edge11" class="edge">
<title>label0x5590f9944090&#45;&gt;label0x5590f9944290</title>
<path fill="none" stroke="blue" d="M243.57,-37.27C282.01,-29.31 329.83,-21.75 373,-18.27 663.61,5.14 738.52,6.77 1029,-18.27 1065.58,-21.42 1105.69,-27.93 1139.59,-35.05"/>
<polygon fill="blue" stroke="blue" points="1138.93,-38.49 1149.44,-37.17 1140.4,-31.64 1138.93,-38.49"/>
</g>
<!-- label0x5590f99442d0&#45;&gt;label0x5590f9944090 -->
<g id="edge5" class="edge">
<title>label0x5590f99442d0&#45;&gt;label0x5590f9944090</title>
<path fill="none" stroke="blue" d="M372.89,-60.27C364.41,-60.27 355.85,-60.27 347.3,-60.27"/>
<polygon fill="blue" stroke="blue" points="347.26,-56.77 337.26,-60.27 347.26,-63.77 347.26,-56.77"/>
</g>
<!-- label0x5590f99442b0 -->
<g id="node3" class="node">
<title>label0x5590f99442b0</title>
<path fill="#72eb6c" stroke="black" d="M731,-37.27C731,-37.27 1017,-37.27 1017,-37.27 1023,-37.27 1029,-43.27 1029,-49.27 1029,-49.27 1029,-71.27 1029,-71.27 1029,-77.27 1023,-83.27 1017,-83.27 1017,-83.27 731,-83.27 731,-83.27 725,-83.27 719,-77.27 719,-71.27 719,-71.27 719,-49.27 719,-49.27 719,-43.27 725,-37.27 731,-37.27"/>
<text text-anchor="middle" x="789" y="-68.07" font-family="Times,serif" font-size="14.00">index: 2</text>
<polyline fill="none" stroke="black" points="719,-60.27 859,-60.27"/>
<text text-anchor="middle" x="789" y="-45.07" font-family="Times,serif" font-size="14.00">addr: 0x5590f99442b0</text>
<polyline fill="none" stroke="black" points="859,-37.27 859,-83.27"/>
<text text-anchor="middle" x="882.5" y="-56.57" font-family="Times,serif" font-size="14.00">val: 6</text>
<polyline fill="none" stroke="black" points="906,-37.27 906,-83.27"/>
<text text-anchor="middle" x="967.5" y="-68.07" font-family="Times,serif" font-size="14.00">n: 0x5590f9944290</text>
<polyline fill="none" stroke="black" points="906,-60.27 1029,-60.27"/>
<text text-anchor="middle" x="967.5" y="-45.07" font-family="Times,serif" font-size="14.00">p: 0x5590f99442d0</text>
</g>
<!-- label0x5590f99442d0&#45;&gt;label0x5590f99442b0 -->
<g id="edge2" class="edge">
<title>label0x5590f99442d0&#45;&gt;label0x5590f99442b0</title>
<path fill="none" stroke="#dce6e3" stroke-dasharray="5,2" d="M683.14,-46.83C695.03,-46.75 707.03,-46.75 718.92,-46.84"/>
</g>
<!-- label0x5590f99442d0&#45;&gt;label0x5590f99442b0 -->
<g id="edge4" class="edge">
<title>label0x5590f99442d0&#45;&gt;label0x5590f99442b0</title>
<path fill="none" stroke="red" d="M683.14,-60.27C691.68,-60.27 700.29,-60.27 708.86,-60.27"/>
<polygon fill="red" stroke="red" points="708.92,-63.77 718.92,-60.27 708.92,-56.77 708.92,-63.77"/>
</g>
<!-- label0x5590f99442b0&#45;&gt;label0x5590f99442d0 -->
<g id="edge7" class="edge">
<title>label0x5590f99442b0&#45;&gt;label0x5590f99442d0</title>
<path fill="none" stroke="blue" d="M718.92,-73.7C710.37,-73.77 701.77,-73.78 693.19,-73.76"/>
<polygon fill="blue" stroke="blue" points="693.16,-70.26 683.14,-73.71 693.12,-77.26 693.16,-70.26"/>
</g>
<!-- label0x5590f99442b0&#45;&gt;label0x5590f9944290 -->
<g id="edge3" class="edge">
<title>label0x5590f99442b0&#45;&gt;label0x5590f9944290</title>
<path fill="none" stroke="#dce6e3" stroke-dasharray="5,2" d="M1029.14,-46.83C1041.03,-46.75 1053.03,-46.75 1064.92,-46.84"/>
</g>
<!-- label0x5590f99442b0&#45;&gt;label0x5590f9944290 -->
<g id="edge6" class="edge">
<title>label0x5590f99442b0&#45;&gt;label0x5590f9944290</title>
<path fill="none" stroke="red" d="M1029.14,-60.27C1037.68,-60.27 1046.29,-60.27 1054.86,-60.27"/>
<polygon fill="red" stroke="red" points="1054.92,-63.77 1064.92,-60.27 1054.92,-56.77 1054.92,-63.77"/>
</g>
<!-- label0x5590f9944290&#45;&gt;label0x5590f9944090 -->
<g id="edge8" class="edge">
<title>label0x5590f9944290&#45;&gt;label0x5590f9944090</title>
<path fill="none" stroke="red" d="M1064.79,-40.18C1052.71,-38.62 1040.67,-37.28 1029,-36.27 738.52,-11.23 663.61,-12.86 373,-36.27 364.6,-36.95 356.03,-37.78 347.38,-38.72"/>
<polygon fill="red" stroke="red" points="346.74,-35.27 337.2,-39.88 347.54,-42.23 346.74,-35.27"/>
</g>
<!-- label0x5590f9944290&#45;&gt;label0x5590f99442b0 -->
<g id="edge9" class="edge">
<title>label0x5590f9944290&#45;&gt;label0x5590f99442b0</title>
<path fill="none" stroke="blue" d="M1064.92,-73.7C1056.37,-73.77 1047.77,-73.78 1039.19,-73.76"/>
<polygon fill="blue" stroke="blue" points="1039.16,-70.26 1029.14,-73.71 1039.12,-77.26 1039.16,-70.26"/>
</g>
</g>
</svg>
