<?xml version="1.0" encoding="UTF-8" standalone="no"?>
<!DOCTYPE svg PUBLIC "-//W3C//DTD SVG 1.1//EN"
 "http://www.w3.org/Graphics/SVG/1.1/DTD/svg11.dtd">
<!-- Generated by graphviz version 6.0.2 (20221011.1828)
 -->
<!-- Title: structs Pages: 1 -->
<svg width="1737pt" height="101pt"
 viewBox="0.00 0.00 1737.00 101.30" xmlns="http://www.w3.org/2000/svg" xmlns:xlink="http://www.w3.org/1999/xlink">
<g id="graph0" class="graph" transform="scale(1 1) rotate(0) translate(4 97.3)">
<title>structs</title>
<polygon fill="white" stroke="none" points="-4,4 -4,-97.3 1733,-97.3 1733,4 -4,4"/>
<!-- label0x56343ca24090 -->
<g id="node1" class="node">
<title>label0x56343ca24090</title>
<path fill="#f593a8" stroke="black" d="M12,-46.8C12,-46.8 327,-46.8 327,-46.8 333,-46.8 339,-52.8 339,-58.8 339,-58.8 339,-80.8 339,-80.8 339,-86.8 333,-92.8 327,-92.8 327,-92.8 12,-92.8 12,-92.8 6,-92.8 0,-86.8 0,-80.8 0,-80.8 0,-58.8 0,-58.8 0,-52.8 6,-46.8 12,-46.8"/>
<text text-anchor="middle" x="70.5" y="-77.6" font-family="Times,serif" font-size="14.00">index: 0</text>
<polyline fill="none" stroke="black" points="0,-69.8 141,-69.8"/>
<text text-anchor="middle" x="70.5" y="-54.6" font-family="Times,serif" font-size="14.00">addr: 0x56343ca24090</text>
<polyline fill="none" stroke="black" points="141,-46.8 141,-92.8"/>
<text text-anchor="middle" x="178" y="-66.1" font-family="Times,serif" font-size="14.00">val: 48879</text>
<polyline fill="none" stroke="black" points="215,-46.8 215,-92.8"/>
<text text-anchor="middle" x="277" y="-77.6" font-family="Times,serif" font-size="14.00">n: 0x56343ca242f0</text>
<polyline fill="none" stroke="black" points="215,-69.8 339,-69.8"/>
<text text-anchor="middle" x="277" y="-54.6" font-family="Times,serif" font-size="14.00">p: 0x56343ca24290</text>
</g>
<!-- label0x56343ca242f0 -->
<g id="node2" class="node">
<title>label0x56343ca242f0</title>
<path fill="#72eb6c" stroke="black" d="M387,-46.8C387,-46.8 673,-46.8 673,-46.8 679,-46.8 685,-52.8 685,-58.8 685,-58.8 685,-80.8 685,-80.8 685,-86.8 679,-92.8 673,-92.8 673,-92.8 387,-92.8 387,-92.8 381,-92.8 375,-86.8 375,-80.8 375,-80.8 375,-58.8 375,-58.8 375,-52.8 381,-46.8 387,-46.8"/>
<text text-anchor="middle" x="444.5" y="-77.6" font-family="Times,serif" font-size="14.00">index: 1</text>
<polyline fill="none" stroke="black" points="375,-69.8 514,-69.8"/>
<text text-anchor="middle" x="444.5" y="-54.6" font-family="Times,serif" font-size="14.00">addr: 0x56343ca242f0</text>
<polyline fill="none" stroke="black" points="514,-46.8 514,-92.8"/>
<text text-anchor="middle" x="537.5" y="-66.1" font-family="Times,serif" font-size="14.00">val: 8</text>
<polyline fill="none" stroke="black" points="561,-46.8 561,-92.8"/>
<text text-anchor="middle" x="623" y="-77.6" font-family="Times,serif" font-size="14.00">n: 0x56343ca242d0</text>
<polyline fill="none" stroke="black" points="561,-69.8 685,-69.8"/>
<text text-anchor="middle" x="623" y="-54.6" font-family="Times,serif" font-size="14.00">p: 0x56343ca24090</text>
</g>
<!-- label0x56343ca24090&#45;&gt;label0x56343ca242f0 -->
<g id="edge1" class="edge">
<title>label0x56343ca24090&#45;&gt;label0x56343ca242f0</title>
<path fill="none" stroke="#dce6e3" stroke-dasharray="5,2" d="M339.25,-56.32C351.15,-56.27 363.11,-56.31 374.91,-56.42"/>
</g>
<!-- label0x56343ca24090&#45;&gt;label0x56343ca242f0 -->
<g id="edge13" class="edge">
<title>label0x56343ca24090&#45;&gt;label0x56343ca242f0</title>
<path fill="none" stroke="red" d="M339.25,-83.28C347.71,-83.31 356.2,-83.31 364.64,-83.26"/>
<polygon fill="red" stroke="red" points="364.94,-86.76 374.91,-83.18 364.89,-79.76 364.94,-86.76"/>
</g>
<!-- label0x56343ca24290 -->
<g id="node5" class="node">
<title>label0x56343ca24290</title>
<path fill="#72eb6c" stroke="black" d="M1429,-46.8C1429,-46.8 1717,-46.8 1717,-46.8 1723,-46.8 1729,-52.8 1729,-58.8 1729,-58.8 1729,-80.8 1729,-80.8 1729,-86.8 1723,-92.8 1717,-92.8 1717,-92.8 1429,-92.8 1429,-92.8 1423,-92.8 1417,-86.8 1417,-80.8 1417,-80.8 1417,-58.8 1417,-58.8 1417,-52.8 1423,-46.8 1429,-46.8"/>
<text text-anchor="middle" x="1487.5" y="-77.6" font-family="Times,serif" font-size="14.00">index: 4</text>
<polyline fill="none" stroke="black" points="1417,-69.8 1558,-69.8"/>
<text text-anchor="middle" x="1487.5" y="-54.6" font-family="Times,serif" font-size="14.00">addr: 0x56343ca24290</text>
<polyline fill="none" stroke="black" points="1558,-46.8 1558,-92.8"/>
<text text-anchor="middle" x="1581.5" y="-66.1" font-family="Times,serif" font-size="14.00">val: 5</text>
<polyline fill="none" stroke="black" points="1605,-46.8 1605,-92.8"/>
<text text-anchor="middle" x="1667" y="-77.6" font-family="Times,serif" font-size="14.00">n: 0x56343ca24090</text>
<polyline fill="none" stroke="black" points="1605,-69.8 1729,-69.8"/>
<text text-anchor="middle" x="1667" y="-54.6" font-family="Times,serif" font-size="14.00">p: 0x56343ca242b0</text>
</g>
<!-- label0x56343ca24090&#45;&gt;label0x56343ca24290 -->
<g id="edge14" class="edge">
<title>label0x56343ca24090&#45;&gt;label0x56343ca24290</title>
<path fill="none" stroke="blue" d="M244.94,-46.8C283.57,-38.84 331.62,-31.28 375,-27.8 820.68,7.93 935.52,10.4 1381,-27.8 1417.77,-30.95 1458.09,-37.46 1492.17,-44.58"/>
<polygon fill="blue" stroke="blue" points="1491.56,-48.03 1502.07,-46.7 1493.03,-41.18 1491.56,-48.03"/>
</g>
<!-- label0x56343ca242f0&#45;&gt;label0x56343ca24090 -->
<g id="edge6" class="edge">
<title>label0x56343ca242f0&#45;&gt;label0x56343ca24090</title>
<path fill="none" stroke="blue" d="M374.91,-69.8C366.43,-69.8 357.86,-69.8 349.3,-69.8"/>
<polygon fill="blue" stroke="blue" points="349.25,-66.3 339.25,-69.8 349.25,-73.3 349.25,-66.3"/>
</g>
<!-- label0x56343ca242d0 -->
<g id="node3" class="node">
<title>label0x56343ca242d0</title>
<path fill="#72eb6c" stroke="black" d="M733,-46.8C733,-46.8 1021,-46.8 1021,-46.8 1027,-46.8 1033,-52.8 1033,-58.8 1033,-58.8 1033,-80.8 1033,-80.8 1033,-86.8 1027,-92.8 1021,-92.8 1021,-92.8 733,-92.8 733,-92.8 727,-92.8 721,-86.8 721,-80.8 721,-80.8 721,-58.8 721,-58.8 721,-52.8 727,-46.8 733,-46.8"/>
<text text-anchor="middle" x="791.5" y="-77.6" font-family="Times,serif" font-size="14.00">index: 2</text>
<polyline fill="none" stroke="black" points="721,-69.8 862,-69.8"/>
<text text-anchor="middle" x="791.5" y="-54.6" font-family="Times,serif" font-size="14.00">addr: 0x56343ca242d0</text>
<polyline fill="none" stroke="black" points="862,-46.8 862,-92.8"/>
<text text-anchor="middle" x="885.5" y="-66.1" font-family="Times,serif" font-size="14.00">val: 7</text>
<polyline fill="none" stroke="black" points="909,-46.8 909,-92.8"/>
<text text-anchor="middle" x="971" y="-77.6" font-family="Times,serif" font-size="14.00">n: 0x56343ca242b0</text>
<polyline fill="none" stroke="black" points="909,-69.8 1033,-69.8"/>
<text text-anchor="middle" x="971" y="-54.6" font-family="Times,serif" font-size="14.00">p: 0x56343ca242f0</text>
</g>
<!-- label0x56343ca242f0&#45;&gt;label0x56343ca242d0 -->
<g id="edge2" class="edge">
<title>label0x56343ca242f0&#45;&gt;label0x56343ca242d0</title>
<path fill="none" stroke="#dce6e3" stroke-dasharray="5,2" d="M685.09,-56.37C696.94,-56.28 708.9,-56.28 720.76,-56.36"/>
</g>
<!-- label0x56343ca242f0&#45;&gt;label0x56343ca242d0 -->
<g id="edge5" class="edge">
<title>label0x56343ca242f0&#45;&gt;label0x56343ca242d0</title>
<path fill="none" stroke="red" d="M685.09,-69.8C693.6,-69.8 702.18,-69.8 710.73,-69.8"/>
<polygon fill="red" stroke="red" points="710.76,-73.3 720.76,-69.8 710.76,-66.3 710.76,-73.3"/>
</g>
<!-- label0x56343ca242d0&#45;&gt;label0x56343ca242f0 -->
<g id="edge8" class="edge">
<title>label0x56343ca242d0&#45;&gt;label0x56343ca242f0</title>
<path fill="none" stroke="blue" d="M720.76,-83.24C712.24,-83.3 703.66,-83.32 695.11,-83.29"/>
<polygon fill="blue" stroke="blue" points="695.1,-79.79 685.09,-83.23 695.07,-86.79 695.1,-79.79"/>
</g>
<!-- label0x56343ca242b0 -->
<g id="node4" class="node">
<title>label0x56343ca242b0</title>
<path fill="#72eb6c" stroke="black" d="M1081,-46.8C1081,-46.8 1369,-46.8 1369,-46.8 1375,-46.8 1381,-52.8 1381,-58.8 1381,-58.8 1381,-80.8 1381,-80.8 1381,-86.8 1375,-92.8 1369,-92.8 1369,-92.8 1081,-92.8 1081,-92.8 1075,-92.8 1069,-86.8 1069,-80.8 1069,-80.8 1069,-58.8 1069,-58.8 1069,-52.8 1075,-46.8 1081,-46.8"/>
<text text-anchor="middle" x="1139.5" y="-77.6" font-family="Times,serif" font-size="14.00">index: 3</text>
<polyline fill="none" stroke="black" points="1069,-69.8 1210,-69.8"/>
<text text-anchor="middle" x="1139.5" y="-54.6" font-family="Times,serif" font-size="14.00">addr: 0x56343ca242b0</text>
<polyline fill="none" stroke="black" points="1210,-46.8 1210,-92.8"/>
<text text-anchor="middle" x="1233.5" y="-66.1" font-family="Times,serif" font-size="14.00">val: 6</text>
<polyline fill="none" stroke="black" points="1257,-46.8 1257,-92.8"/>
<text text-anchor="middle" x="1319" y="-77.6" font-family="Times,serif" font-size="14.00">n: 0x56343ca24290</text>
<polyline fill="none" stroke="black" points="1257,-69.8 1381,-69.8"/>
<text text-anchor="middle" x="1319" y="-54.6" font-family="Times,serif" font-size="14.00">p: 0x56343ca242d0</text>
</g>
<!-- label0x56343ca242d0&#45;&gt;label0x56343ca242b0 -->
<g id="edge3" class="edge">
<title>label0x56343ca242d0&#45;&gt;label0x56343ca242b0</title>
<path fill="none" stroke="#dce6e3" stroke-dasharray="5,2" d="M1033.04,-56.37C1044.9,-56.28 1056.88,-56.28 1068.75,-56.36"/>
</g>
<!-- label0x56343ca242d0&#45;&gt;label0x56343ca242b0 -->
<g id="edge7" class="edge">
<title>label0x56343ca242d0&#45;&gt;label0x56343ca242b0</title>
<path fill="none" stroke="red" d="M1033.04,-69.8C1041.56,-69.8 1050.15,-69.8 1058.72,-69.8"/>
<polygon fill="red" stroke="red" points="1058.75,-73.3 1068.75,-69.8 1058.75,-66.3 1058.75,-73.3"/>
</g>
<!-- label0x56343ca242b0&#45;&gt;label0x56343ca242d0 -->
<g id="edge10" class="edge">
<title>label0x56343ca242b0&#45;&gt;label0x56343ca242d0</title>
<path fill="none" stroke="blue" d="M1068.75,-83.24C1060.22,-83.3 1051.63,-83.32 1043.07,-83.29"/>
<polygon fill="blue" stroke="blue" points="1043.05,-79.79 1033.04,-83.24 1043.02,-86.79 1043.05,-79.79"/>
</g>
<!-- label0x56343ca242b0&#45;&gt;label0x56343ca24290 -->
<g id="edge4" class="edge">
<title>label0x56343ca242b0&#45;&gt;label0x56343ca24290</title>
<path fill="none" stroke="#dce6e3" stroke-dasharray="5,2" d="M1381.04,-56.37C1392.9,-56.28 1404.88,-56.28 1416.75,-56.36"/>
</g>
<!-- label0x56343ca242b0&#45;&gt;label0x56343ca24290 -->
<g id="edge9" class="edge">
<title>label0x56343ca242b0&#45;&gt;label0x56343ca24290</title>
<path fill="none" stroke="red" d="M1381.04,-69.8C1389.56,-69.8 1398.15,-69.8 1406.72,-69.8"/>
<polygon fill="red" stroke="red" points="1406.75,-73.3 1416.75,-69.8 1406.75,-66.3 1406.75,-73.3"/>
</g>
<!-- label0x56343ca24290&#45;&gt;label0x56343ca24090 -->
<g id="edge11" class="edge">
<title>label0x56343ca24290&#45;&gt;label0x56343ca24090</title>
<path fill="none" stroke="red" d="M1416.97,-49.71C1404.83,-48.15 1392.73,-46.81 1381,-45.8 935.52,-7.6 820.68,-10.07 375,-45.8 366.47,-46.48 357.76,-47.33 348.97,-48.28"/>
<polygon fill="red" stroke="red" points="348.57,-44.81 339.03,-49.41 349.36,-51.76 348.57,-44.81"/>
</g>
<!-- label0x56343ca24290&#45;&gt;label0x56343ca242b0 -->
<g id="edge12" class="edge">
<title>label0x56343ca24290&#45;&gt;label0x56343ca242b0</title>
<path fill="none" stroke="blue" d="M1416.75,-83.24C1408.22,-83.3 1399.63,-83.32 1391.07,-83.29"/>
<polygon fill="blue" stroke="blue" points="1391.05,-79.79 1381.04,-83.24 1391.02,-86.79 1391.05,-79.79"/>
</g>
</g>
</svg>
