<?xml version="1.0" encoding="UTF-8" standalone="no"?>
<!DOCTYPE svg PUBLIC "-//W3C//DTD SVG 1.1//EN"
 "http://www.w3.org/Graphics/SVG/1.1/DTD/svg11.dtd">
<!-- Generated by graphviz version 6.0.2 (20221011.1828)
 -->
<!-- Title: structs Pages: 1 -->
<svg width="1727pt" height="101pt"
 viewBox="0.00 0.00 1727.00 101.27" xmlns="http://www.w3.org/2000/svg" xmlns:xlink="http://www.w3.org/1999/xlink">
<g id="graph0" class="graph" transform="scale(1 1) rotate(0) translate(4 97.27)">
<title>structs</title>
<polygon fill="white" stroke="none" points="-4,4 -4,-97.27 1723,-97.27 1723,4 -4,4"/>
<!-- label0x5590f9944090 -->
<g id="node1" class="node">
<title>label0x5590f9944090</title>
<path fill="#f593a8" stroke="black" d="M12,-46.77C12,-46.77 325,-46.77 325,-46.77 331,-46.77 337,-52.77 337,-58.77 337,-58.77 337,-80.77 337,-80.77 337,-86.77 331,-92.77 325,-92.77 325,-92.77 12,-92.77 12,-92.77 6,-92.77 0,-86.77 0,-80.77 0,-80.77 0,-58.77 0,-58.77 0,-52.77 6,-46.77 12,-46.77"/>
<text text-anchor="middle" x="70" y="-77.57" font-family="Times,serif" font-size="14.00">index: 0</text>
<polyline fill="none" stroke="black" points="0,-69.77 140,-69.77"/>
<text text-anchor="middle" x="70" y="-54.57" font-family="Times,serif" font-size="14.00">addr: 0x5590f9944090</text>
<polyline fill="none" stroke="black" points="140,-46.77 140,-92.77"/>
<text text-anchor="middle" x="177" y="-66.07" font-family="Times,serif" font-size="14.00">val: 48879</text>
<polyline fill="none" stroke="black" points="214,-46.77 214,-92.77"/>
<text text-anchor="middle" x="275.5" y="-77.57" font-family="Times,serif" font-size="14.00">n: 0x5590f99442f0</text>
<polyline fill="none" stroke="black" points="214,-69.77 337,-69.77"/>
<text text-anchor="middle" x="275.5" y="-54.57" font-family="Times,serif" font-size="14.00">p: 0x5590f9944290</text>
</g>
<!-- label0x5590f99442f0 -->
<g id="node2" class="node">
<title>label0x5590f99442f0</title>
<path fill="#72eb6c" stroke="black" d="M385,-46.77C385,-46.77 669,-46.77 669,-46.77 675,-46.77 681,-52.77 681,-58.77 681,-58.77 681,-80.77 681,-80.77 681,-86.77 675,-92.77 669,-92.77 669,-92.77 385,-92.77 385,-92.77 379,-92.77 373,-86.77 373,-80.77 373,-80.77 373,-58.77 373,-58.77 373,-52.77 379,-46.77 385,-46.77"/>
<text text-anchor="middle" x="442" y="-77.57" font-family="Times,serif" font-size="14.00">index: 1</text>
<polyline fill="none" stroke="black" points="373,-69.77 511,-69.77"/>
<text text-anchor="middle" x="442" y="-54.57" font-family="Times,serif" font-size="14.00">addr: 0x5590f99442f0</text>
<polyline fill="none" stroke="black" points="511,-46.77 511,-92.77"/>
<text text-anchor="middle" x="534.5" y="-66.07" font-family="Times,serif" font-size="14.00">val: 8</text>
<polyline fill="none" stroke="black" points="558,-46.77 558,-92.77"/>
<text text-anchor="middle" x="619.5" y="-77.57" font-family="Times,serif" font-size="14.00">n: 0x5590f99442d0</text>
<polyline fill="none" stroke="black" points="558,-69.77 681,-69.77"/>
<text text-anchor="middle" x="619.5" y="-54.57" font-family="Times,serif" font-size="14.00">p: 0x5590f9944090</text>
</g>
<!-- label0x5590f9944090&#45;&gt;label0x5590f99442f0 -->
<g id="edge1" class="edge">
<title>label0x5590f9944090&#45;&gt;label0x5590f99442f0</title>
<path fill="none" stroke="#dce6e3" stroke-dasharray="5,2" d="M337.05,-56.29C348.98,-56.25 360.97,-56.28 372.82,-56.39"/>
</g>
<!-- label0x5590f9944090&#45;&gt;label0x5590f99442f0 -->
<g id="edge13" class="edge">
<title>label0x5590f9944090&#45;&gt;label0x5590f99442f0</title>
<path fill="none" stroke="red" d="M337.05,-83.25C345.62,-83.29 354.23,-83.28 362.79,-83.23"/>
<polygon fill="red" stroke="red" points="362.84,-86.73 372.82,-83.15 362.79,-79.73 362.84,-86.73"/>
</g>
<!-- label0x5590f9944290 -->
<g id="node5" class="node">
<title>label0x5590f9944290</title>
<path fill="#72eb6c" stroke="black" d="M1421,-46.77C1421,-46.77 1707,-46.77 1707,-46.77 1713,-46.77 1719,-52.77 1719,-58.77 1719,-58.77 1719,-80.77 1719,-80.77 1719,-86.77 1713,-92.77 1707,-92.77 1707,-92.77 1421,-92.77 1421,-92.77 1415,-92.77 1409,-86.77 1409,-80.77 1409,-80.77 1409,-58.77 1409,-58.77 1409,-52.77 1415,-46.77 1421,-46.77"/>
<text text-anchor="middle" x="1479" y="-77.57" font-family="Times,serif" font-size="14.00">index: 4</text>
<polyline fill="none" stroke="black" points="1409,-69.77 1549,-69.77"/>
<text text-anchor="middle" x="1479" y="-54.57" font-family="Times,serif" font-size="14.00">addr: 0x5590f9944290</text>
<polyline fill="none" stroke="black" points="1549,-46.77 1549,-92.77"/>
<text text-anchor="middle" x="1572.5" y="-66.07" font-family="Times,serif" font-size="14.00">val: 5</text>
<polyline fill="none" stroke="black" points="1596,-46.77 1596,-92.77"/>
<text text-anchor="middle" x="1657.5" y="-77.57" font-family="Times,serif" font-size="14.00">n: 0x5590f9944090</text>
<polyline fill="none" stroke="black" points="1596,-69.77 1719,-69.77"/>
<text text-anchor="middle" x="1657.5" y="-54.57" font-family="Times,serif" font-size="14.00">p: 0x5590f99442b0</text>
</g>
<!-- label0x5590f9944090&#45;&gt;label0x5590f9944290 -->
<g id="edge14" class="edge">
<title>label0x5590f9944090&#45;&gt;label0x5590f9944290</title>
<path fill="none" stroke="blue" d="M243.57,-46.77C282.01,-38.81 329.83,-31.25 373,-27.77 816.01,7.91 930.2,10.4 1373,-27.77 1409.58,-30.93 1449.69,-37.43 1483.59,-44.55"/>
<polygon fill="blue" stroke="blue" points="1482.93,-47.99 1493.44,-46.68 1484.4,-41.15 1482.93,-47.99"/>
</g>
<!-- label0x5590f99442f0&#45;&gt;label0x5590f9944090 -->
<g id="edge6" class="edge">
<title>label0x5590f99442f0&#45;&gt;label0x5590f9944090</title>
<path fill="none" stroke="blue" d="M372.82,-69.77C364.3,-69.77 355.71,-69.77 347.13,-69.77"/>
<polygon fill="blue" stroke="blue" points="347.05,-66.27 337.05,-69.77 347.05,-73.27 347.05,-66.27"/>
</g>
<!-- label0x5590f99442d0 -->
<g id="node3" class="node">
<title>label0x5590f99442d0</title>
<path fill="#72eb6c" stroke="black" d="M729,-46.77C729,-46.77 1015,-46.77 1015,-46.77 1021,-46.77 1027,-52.77 1027,-58.77 1027,-58.77 1027,-80.77 1027,-80.77 1027,-86.77 1021,-92.77 1015,-92.77 1015,-92.77 729,-92.77 729,-92.77 723,-92.77 717,-86.77 717,-80.77 717,-80.77 717,-58.77 717,-58.77 717,-52.77 723,-46.77 729,-46.77"/>
<text text-anchor="middle" x="787" y="-77.57" font-family="Times,serif" font-size="14.00">index: 2</text>
<polyline fill="none" stroke="black" points="717,-69.77 857,-69.77"/>
<text text-anchor="middle" x="787" y="-54.57" font-family="Times,serif" font-size="14.00">addr: 0x5590f99442d0</text>
<polyline fill="none" stroke="black" points="857,-46.77 857,-92.77"/>
<text text-anchor="middle" x="880.5" y="-66.07" font-family="Times,serif" font-size="14.00">val: 7</text>
<polyline fill="none" stroke="black" points="904,-46.77 904,-92.77"/>
<text text-anchor="middle" x="965.5" y="-77.57" font-family="Times,serif" font-size="14.00">n: 0x5590f99442b0</text>
<polyline fill="none" stroke="black" points="904,-69.77 1027,-69.77"/>
<text text-anchor="middle" x="965.5" y="-54.57" font-family="Times,serif" font-size="14.00">p: 0x5590f99442f0</text>
</g>
<!-- label0x5590f99442f0&#45;&gt;label0x5590f99442d0 -->
<g id="edge2" class="edge">
<title>label0x5590f99442f0&#45;&gt;label0x5590f99442d0</title>
<path fill="none" stroke="#dce6e3" stroke-dasharray="5,2" d="M681.44,-56.34C693.21,-56.25 705.1,-56.25 716.88,-56.33"/>
</g>
<!-- label0x5590f99442f0&#45;&gt;label0x5590f99442d0 -->
<g id="edge5" class="edge">
<title>label0x5590f99442f0&#45;&gt;label0x5590f99442d0</title>
<path fill="none" stroke="red" d="M681.44,-69.77C689.81,-69.77 698.24,-69.77 706.64,-69.77"/>
<polygon fill="red" stroke="red" points="706.88,-73.27 716.88,-69.77 706.88,-66.27 706.88,-73.27"/>
</g>
<!-- label0x5590f99442d0&#45;&gt;label0x5590f99442f0 -->
<g id="edge8" class="edge">
<title>label0x5590f99442d0&#45;&gt;label0x5590f99442f0</title>
<path fill="none" stroke="blue" d="M716.88,-83.21C708.51,-83.27 700.08,-83.29 691.67,-83.26"/>
<polygon fill="blue" stroke="blue" points="691.46,-79.76 681.44,-83.21 691.42,-86.76 691.46,-79.76"/>
</g>
<!-- label0x5590f99442b0 -->
<g id="node4" class="node">
<title>label0x5590f99442b0</title>
<path fill="#72eb6c" stroke="black" d="M1075,-46.77C1075,-46.77 1361,-46.77 1361,-46.77 1367,-46.77 1373,-52.77 1373,-58.77 1373,-58.77 1373,-80.77 1373,-80.77 1373,-86.77 1367,-92.77 1361,-92.77 1361,-92.77 1075,-92.77 1075,-92.77 1069,-92.77 1063,-86.77 1063,-80.77 1063,-80.77 1063,-58.77 1063,-58.77 1063,-52.77 1069,-46.77 1075,-46.77"/>
<text text-anchor="middle" x="1133" y="-77.57" font-family="Times,serif" font-size="14.00">index: 3</text>
<polyline fill="none" stroke="black" points="1063,-69.77 1203,-69.77"/>
<text text-anchor="middle" x="1133" y="-54.57" font-family="Times,serif" font-size="14.00">addr: 0x5590f99442b0</text>
<polyline fill="none" stroke="black" points="1203,-46.77 1203,-92.77"/>
<text text-anchor="middle" x="1226.5" y="-66.07" font-family="Times,serif" font-size="14.00">val: 6</text>
<polyline fill="none" stroke="black" points="1250,-46.77 1250,-92.77"/>
<text text-anchor="middle" x="1311.5" y="-77.57" font-family="Times,serif" font-size="14.00">n: 0x5590f9944290</text>
<polyline fill="none" stroke="black" points="1250,-69.77 1373,-69.77"/>
<text text-anchor="middle" x="1311.5" y="-54.57" font-family="Times,serif" font-size="14.00">p: 0x5590f99442d0</text>
</g>
<!-- label0x5590f99442d0&#45;&gt;label0x5590f99442b0 -->
<g id="edge3" class="edge">
<title>label0x5590f99442d0&#45;&gt;label0x5590f99442b0</title>
<path fill="none" stroke="#dce6e3" stroke-dasharray="5,2" d="M1027.14,-56.34C1039.03,-56.25 1051.03,-56.25 1062.92,-56.34"/>
</g>
<!-- label0x5590f99442d0&#45;&gt;label0x5590f99442b0 -->
<g id="edge7" class="edge">
<title>label0x5590f99442d0&#45;&gt;label0x5590f99442b0</title>
<path fill="none" stroke="red" d="M1027.14,-69.77C1035.68,-69.77 1044.29,-69.77 1052.86,-69.77"/>
<polygon fill="red" stroke="red" points="1052.92,-73.27 1062.92,-69.77 1052.92,-66.27 1052.92,-73.27"/>
</g>
<!-- label0x5590f99442b0&#45;&gt;label0x5590f99442d0 -->
<g id="edge10" class="edge">
<title>label0x5590f99442b0&#45;&gt;label0x5590f99442d0</title>
<path fill="none" stroke="blue" d="M1062.92,-83.21C1054.37,-83.27 1045.77,-83.29 1037.19,-83.26"/>
<polygon fill="blue" stroke="blue" points="1037.16,-79.76 1027.14,-83.21 1037.12,-86.76 1037.16,-79.76"/>
</g>
<!-- label0x5590f99442b0&#45;&gt;label0x5590f9944290 -->
<g id="edge4" class="edge">
<title>label0x5590f99442b0&#45;&gt;label0x5590f9944290</title>
<path fill="none" stroke="#dce6e3" stroke-dasharray="5,2" d="M1373.14,-56.34C1385.03,-56.25 1397.03,-56.25 1408.92,-56.34"/>
</g>
<!-- label0x5590f99442b0&#45;&gt;label0x5590f9944290 -->
<g id="edge9" class="edge">
<title>label0x5590f99442b0&#45;&gt;label0x5590f9944290</title>
<path fill="none" stroke="red" d="M1373.14,-69.77C1381.68,-69.77 1390.29,-69.77 1398.86,-69.77"/>
<polygon fill="red" stroke="red" points="1398.92,-73.27 1408.92,-69.77 1398.92,-66.27 1398.92,-73.27"/>
</g>
<!-- label0x5590f9944290&#45;&gt;label0x5590f9944090 -->
<g id="edge11" class="edge">
<title>label0x5590f9944290&#45;&gt;label0x5590f9944090</title>
<path fill="none" stroke="red" d="M1408.79,-49.68C1396.71,-48.13 1384.67,-46.78 1373,-45.77 930.2,-7.6 816.01,-10.09 373,-45.77 364.6,-46.45 356.03,-47.28 347.38,-48.23"/>
<polygon fill="red" stroke="red" points="346.74,-44.78 337.2,-49.38 347.54,-51.73 346.74,-44.78"/>
</g>
<!-- label0x5590f9944290&#45;&gt;label0x5590f99442b0 -->
<g id="edge12" class="edge">
<title>label0x5590f9944290&#45;&gt;label0x5590f99442b0</title>
<path fill="none" stroke="blue" d="M1408.92,-83.21C1400.37,-83.27 1391.77,-83.29 1383.19,-83.26"/>
<polygon fill="blue" stroke="blue" points="1383.16,-79.76 1373.14,-83.21 1383.12,-86.76 1383.16,-79.76"/>
</g>
</g>
</svg>
