<?xml version="1.0" encoding="UTF-8" standalone="no"?>
<!DOCTYPE svg PUBLIC "-//W3C//DTD SVG 1.1//EN"
 "http://www.w3.org/Graphics/SVG/1.1/DTD/svg11.dtd">
<!-- Generated by graphviz version 6.0.2 (20221011.1828)
 -->
<!-- Title: structs Pages: 1 -->
<svg width="2085pt" height="102pt"
 viewBox="0.00 0.00 2085.00 101.50" xmlns="http://www.w3.org/2000/svg" xmlns:xlink="http://www.w3.org/1999/xlink">
<g id="graph0" class="graph" transform="scale(1 1) rotate(0) translate(4 97.5)">
<title>structs</title>
<polygon fill="white" stroke="none" points="-4,4 -4,-97.5 2081,-97.5 2081,4 -4,4"/>
<!-- label0x56343ca24090 -->
<g id="node1" class="node">
<title>label0x56343ca24090</title>
<path fill="#f593a8" stroke="black" d="M12,-47C12,-47 327,-47 327,-47 333,-47 339,-53 339,-59 339,-59 339,-81 339,-81 339,-87 333,-93 327,-93 327,-93 12,-93 12,-93 6,-93 0,-87 0,-81 0,-81 0,-59 0,-59 0,-53 6,-47 12,-47"/>
<text text-anchor="middle" x="70.5" y="-77.8" font-family="Times,serif" font-size="14.00">index: 0</text>
<polyline fill="none" stroke="black" points="0,-70 141,-70"/>
<text text-anchor="middle" x="70.5" y="-54.8" font-family="Times,serif" font-size="14.00">addr: 0x56343ca24090</text>
<polyline fill="none" stroke="black" points="141,-47 141,-93"/>
<text text-anchor="middle" x="178" y="-66.3" font-family="Times,serif" font-size="14.00">val: 48879</text>
<polyline fill="none" stroke="black" points="215,-47 215,-93"/>
<text text-anchor="middle" x="277" y="-77.8" font-family="Times,serif" font-size="14.00">n: 0x56343ca242f0</text>
<polyline fill="none" stroke="black" points="215,-70 339,-70"/>
<text text-anchor="middle" x="277" y="-54.8" font-family="Times,serif" font-size="14.00">p: 0x56343ca24290</text>
</g>
<!-- label0x56343ca242f0 -->
<g id="node2" class="node">
<title>label0x56343ca242f0</title>
<path fill="#72eb6c" stroke="black" d="M387,-47C387,-47 673,-47 673,-47 679,-47 685,-53 685,-59 685,-59 685,-81 685,-81 685,-87 679,-93 673,-93 673,-93 387,-93 387,-93 381,-93 375,-87 375,-81 375,-81 375,-59 375,-59 375,-53 381,-47 387,-47"/>
<text text-anchor="middle" x="444.5" y="-77.8" font-family="Times,serif" font-size="14.00">index: 1</text>
<polyline fill="none" stroke="black" points="375,-70 514,-70"/>
<text text-anchor="middle" x="444.5" y="-54.8" font-family="Times,serif" font-size="14.00">addr: 0x56343ca242f0</text>
<polyline fill="none" stroke="black" points="514,-47 514,-93"/>
<text text-anchor="middle" x="537.5" y="-66.3" font-family="Times,serif" font-size="14.00">val: 8</text>
<polyline fill="none" stroke="black" points="561,-47 561,-93"/>
<text text-anchor="middle" x="623" y="-77.8" font-family="Times,serif" font-size="14.00">n: 0x56343ca242d0</text>
<polyline fill="none" stroke="black" points="561,-70 685,-70"/>
<text text-anchor="middle" x="623" y="-54.8" font-family="Times,serif" font-size="14.00">p: 0x56343ca24090</text>
</g>
<!-- label0x56343ca24090&#45;&gt;label0x56343ca242f0 -->
<g id="edge1" class="edge">
<title>label0x56343ca24090&#45;&gt;label0x56343ca242f0</title>
<path fill="none" stroke="#dce6e3" stroke-dasharray="5,2" d="M339.25,-56.52C351.15,-56.47 363.11,-56.51 374.91,-56.62"/>
</g>
<!-- label0x56343ca24090&#45;&gt;label0x56343ca242f0 -->
<g id="edge16" class="edge">
<title>label0x56343ca24090&#45;&gt;label0x56343ca242f0</title>
<path fill="none" stroke="red" d="M339.25,-83.48C347.71,-83.51 356.2,-83.51 364.64,-83.46"/>
<polygon fill="red" stroke="red" points="364.94,-86.96 374.91,-83.38 364.89,-79.96 364.94,-86.96"/>
</g>
<!-- label0x56343ca24290 -->
<g id="node6" class="node">
<title>label0x56343ca24290</title>
<path fill="#72eb6c" stroke="black" d="M1777,-47C1777,-47 2065,-47 2065,-47 2071,-47 2077,-53 2077,-59 2077,-59 2077,-81 2077,-81 2077,-87 2071,-93 2065,-93 2065,-93 1777,-93 1777,-93 1771,-93 1765,-87 1765,-81 1765,-81 1765,-59 1765,-59 1765,-53 1771,-47 1777,-47"/>
<text text-anchor="middle" x="1835.5" y="-77.8" font-family="Times,serif" font-size="14.00">index: 5</text>
<polyline fill="none" stroke="black" points="1765,-70 1906,-70"/>
<text text-anchor="middle" x="1835.5" y="-54.8" font-family="Times,serif" font-size="14.00">addr: 0x56343ca24290</text>
<polyline fill="none" stroke="black" points="1906,-47 1906,-93"/>
<text text-anchor="middle" x="1929.5" y="-66.3" font-family="Times,serif" font-size="14.00">val: 5</text>
<polyline fill="none" stroke="black" points="1953,-47 1953,-93"/>
<text text-anchor="middle" x="2015" y="-77.8" font-family="Times,serif" font-size="14.00">n: 0x56343ca24090</text>
<polyline fill="none" stroke="black" points="1953,-70 2077,-70"/>
<text text-anchor="middle" x="2015" y="-54.8" font-family="Times,serif" font-size="14.00">p: 0x56343ca24310</text>
</g>
<!-- label0x56343ca24090&#45;&gt;label0x56343ca24290 -->
<g id="edge17" class="edge">
<title>label0x56343ca24090&#45;&gt;label0x56343ca24290</title>
<path fill="none" stroke="blue" d="M250.36,-46.96C288.04,-39.63 333.7,-32.47 375,-28 596.72,-3.98 652.99,0 876,0 876,0 876,0 1226,0 1449.9,0 1506.54,-2.68 1729,-28 1764.15,-32 1802.64,-38.28 1835.8,-44.92"/>
<polygon fill="blue" stroke="blue" points="1835.41,-48.41 1845.91,-46.99 1836.81,-41.55 1835.41,-48.41"/>
</g>
<!-- label0x56343ca242f0&#45;&gt;label0x56343ca24090 -->
<g id="edge7" class="edge">
<title>label0x56343ca242f0&#45;&gt;label0x56343ca24090</title>
<path fill="none" stroke="blue" d="M374.91,-70C366.43,-70 357.86,-70 349.3,-70"/>
<polygon fill="blue" stroke="blue" points="349.25,-66.5 339.25,-70 349.25,-73.5 349.25,-66.5"/>
</g>
<!-- label0x56343ca242d0 -->
<g id="node3" class="node">
<title>label0x56343ca242d0</title>
<path fill="#72eb6c" stroke="black" d="M733,-47C733,-47 1021,-47 1021,-47 1027,-47 1033,-53 1033,-59 1033,-59 1033,-81 1033,-81 1033,-87 1027,-93 1021,-93 1021,-93 733,-93 733,-93 727,-93 721,-87 721,-81 721,-81 721,-59 721,-59 721,-53 727,-47 733,-47"/>
<text text-anchor="middle" x="791.5" y="-77.8" font-family="Times,serif" font-size="14.00">index: 2</text>
<polyline fill="none" stroke="black" points="721,-70 862,-70"/>
<text text-anchor="middle" x="791.5" y="-54.8" font-family="Times,serif" font-size="14.00">addr: 0x56343ca242d0</text>
<polyline fill="none" stroke="black" points="862,-47 862,-93"/>
<text text-anchor="middle" x="885.5" y="-66.3" font-family="Times,serif" font-size="14.00">val: 7</text>
<polyline fill="none" stroke="black" points="909,-47 909,-93"/>
<text text-anchor="middle" x="971" y="-77.8" font-family="Times,serif" font-size="14.00">n: 0x56343ca242b0</text>
<polyline fill="none" stroke="black" points="909,-70 1033,-70"/>
<text text-anchor="middle" x="971" y="-54.8" font-family="Times,serif" font-size="14.00">p: 0x56343ca242f0</text>
</g>
<!-- label0x56343ca242f0&#45;&gt;label0x56343ca242d0 -->
<g id="edge2" class="edge">
<title>label0x56343ca242f0&#45;&gt;label0x56343ca242d0</title>
<path fill="none" stroke="#dce6e3" stroke-dasharray="5,2" d="M685.09,-56.57C696.94,-56.48 708.9,-56.48 720.76,-56.56"/>
</g>
<!-- label0x56343ca242f0&#45;&gt;label0x56343ca242d0 -->
<g id="edge6" class="edge">
<title>label0x56343ca242f0&#45;&gt;label0x56343ca242d0</title>
<path fill="none" stroke="red" d="M685.09,-70C693.6,-70 702.18,-70 710.73,-70"/>
<polygon fill="red" stroke="red" points="710.76,-73.5 720.76,-70 710.76,-66.5 710.76,-73.5"/>
</g>
<!-- label0x56343ca242d0&#45;&gt;label0x56343ca242f0 -->
<g id="edge9" class="edge">
<title>label0x56343ca242d0&#45;&gt;label0x56343ca242f0</title>
<path fill="none" stroke="blue" d="M720.76,-83.44C712.24,-83.5 703.66,-83.51 695.11,-83.49"/>
<polygon fill="blue" stroke="blue" points="695.1,-79.99 685.09,-83.43 695.07,-86.99 695.1,-79.99"/>
</g>
<!-- label0x56343ca242b0 -->
<g id="node4" class="node">
<title>label0x56343ca242b0</title>
<path fill="#72eb6c" stroke="black" d="M1081,-47C1081,-47 1369,-47 1369,-47 1375,-47 1381,-53 1381,-59 1381,-59 1381,-81 1381,-81 1381,-87 1375,-93 1369,-93 1369,-93 1081,-93 1081,-93 1075,-93 1069,-87 1069,-81 1069,-81 1069,-59 1069,-59 1069,-53 1075,-47 1081,-47"/>
<text text-anchor="middle" x="1139.5" y="-77.8" font-family="Times,serif" font-size="14.00">index: 3</text>
<polyline fill="none" stroke="black" points="1069,-70 1210,-70"/>
<text text-anchor="middle" x="1139.5" y="-54.8" font-family="Times,serif" font-size="14.00">addr: 0x56343ca242b0</text>
<polyline fill="none" stroke="black" points="1210,-47 1210,-93"/>
<text text-anchor="middle" x="1233.5" y="-66.3" font-family="Times,serif" font-size="14.00">val: 6</text>
<polyline fill="none" stroke="black" points="1257,-47 1257,-93"/>
<text text-anchor="middle" x="1319" y="-77.8" font-family="Times,serif" font-size="14.00">n: 0x56343ca24310</text>
<polyline fill="none" stroke="black" points="1257,-70 1381,-70"/>
<text text-anchor="middle" x="1319" y="-54.8" font-family="Times,serif" font-size="14.00">p: 0x56343ca242d0</text>
</g>
<!-- label0x56343ca242d0&#45;&gt;label0x56343ca242b0 -->
<g id="edge3" class="edge">
<title>label0x56343ca242d0&#45;&gt;label0x56343ca242b0</title>
<path fill="none" stroke="#dce6e3" stroke-dasharray="5,2" d="M1033.04,-56.56C1044.9,-56.48 1056.88,-56.48 1068.75,-56.56"/>
</g>
<!-- label0x56343ca242d0&#45;&gt;label0x56343ca242b0 -->
<g id="edge8" class="edge">
<title>label0x56343ca242d0&#45;&gt;label0x56343ca242b0</title>
<path fill="none" stroke="red" d="M1033.04,-70C1041.56,-70 1050.15,-70 1058.72,-70"/>
<polygon fill="red" stroke="red" points="1058.75,-73.5 1068.75,-70 1058.75,-66.5 1058.75,-73.5"/>
</g>
<!-- label0x56343ca242b0&#45;&gt;label0x56343ca242d0 -->
<g id="edge11" class="edge">
<title>label0x56343ca242b0&#45;&gt;label0x56343ca242d0</title>
<path fill="none" stroke="blue" d="M1068.75,-83.44C1060.22,-83.5 1051.63,-83.51 1043.07,-83.49"/>
<polygon fill="blue" stroke="blue" points="1043.05,-79.99 1033.04,-83.44 1043.02,-86.99 1043.05,-79.99"/>
</g>
<!-- label0x56343ca24310 -->
<g id="node5" class="node">
<title>label0x56343ca24310</title>
<path fill="#72eb6c" stroke="black" d="M1429,-47C1429,-47 1717,-47 1717,-47 1723,-47 1729,-53 1729,-59 1729,-59 1729,-81 1729,-81 1729,-87 1723,-93 1717,-93 1717,-93 1429,-93 1429,-93 1423,-93 1417,-87 1417,-81 1417,-81 1417,-59 1417,-59 1417,-53 1423,-47 1429,-47"/>
<text text-anchor="middle" x="1487.5" y="-77.8" font-family="Times,serif" font-size="14.00">index: 4</text>
<polyline fill="none" stroke="black" points="1417,-70 1558,-70"/>
<text text-anchor="middle" x="1487.5" y="-54.8" font-family="Times,serif" font-size="14.00">addr: 0x56343ca24310</text>
<polyline fill="none" stroke="black" points="1558,-47 1558,-93"/>
<text text-anchor="middle" x="1581.5" y="-66.3" font-family="Times,serif" font-size="14.00">val: 1</text>
<polyline fill="none" stroke="black" points="1605,-47 1605,-93"/>
<text text-anchor="middle" x="1667" y="-77.8" font-family="Times,serif" font-size="14.00">n: 0x56343ca24290</text>
<polyline fill="none" stroke="black" points="1605,-70 1729,-70"/>
<text text-anchor="middle" x="1667" y="-54.8" font-family="Times,serif" font-size="14.00">p: 0x56343ca242b0</text>
</g>
<!-- label0x56343ca242b0&#45;&gt;label0x56343ca24310 -->
<g id="edge4" class="edge">
<title>label0x56343ca242b0&#45;&gt;label0x56343ca24310</title>
<path fill="none" stroke="#dce6e3" stroke-dasharray="5,2" d="M1381.04,-56.56C1392.9,-56.48 1404.88,-56.48 1416.75,-56.56"/>
</g>
<!-- label0x56343ca242b0&#45;&gt;label0x56343ca24310 -->
<g id="edge10" class="edge">
<title>label0x56343ca242b0&#45;&gt;label0x56343ca24310</title>
<path fill="none" stroke="red" d="M1381.04,-70C1389.56,-70 1398.15,-70 1406.72,-70"/>
<polygon fill="red" stroke="red" points="1406.75,-73.5 1416.75,-70 1406.75,-66.5 1406.75,-73.5"/>
</g>
<!-- label0x56343ca24310&#45;&gt;label0x56343ca242b0 -->
<g id="edge13" class="edge">
<title>label0x56343ca24310&#45;&gt;label0x56343ca242b0</title>
<path fill="none" stroke="blue" d="M1416.75,-83.44C1408.22,-83.5 1399.63,-83.51 1391.07,-83.49"/>
<polygon fill="blue" stroke="blue" points="1391.05,-79.99 1381.04,-83.44 1391.02,-86.99 1391.05,-79.99"/>
</g>
<!-- label0x56343ca24310&#45;&gt;label0x56343ca24290 -->
<g id="edge5" class="edge">
<title>label0x56343ca24310&#45;&gt;label0x56343ca24290</title>
<path fill="none" stroke="#dce6e3" stroke-dasharray="5,2" d="M1729.04,-56.56C1740.9,-56.48 1752.88,-56.48 1764.75,-56.56"/>
</g>
<!-- label0x56343ca24310&#45;&gt;label0x56343ca24290 -->
<g id="edge12" class="edge">
<title>label0x56343ca24310&#45;&gt;label0x56343ca24290</title>
<path fill="none" stroke="red" d="M1729.04,-70C1737.56,-70 1746.15,-70 1754.72,-70"/>
<polygon fill="red" stroke="red" points="1754.75,-73.5 1764.75,-70 1754.75,-66.5 1754.75,-73.5"/>
</g>
<!-- label0x56343ca24290&#45;&gt;label0x56343ca24090 -->
<g id="edge14" class="edge">
<title>label0x56343ca24290&#45;&gt;label0x56343ca24090</title>
<path fill="none" stroke="red" d="M1764.9,-50.64C1752.77,-48.92 1740.7,-47.33 1729,-46 1506.54,-20.68 1449.9,-18 1226,-18 876,-18 876,-18 876,-18 652.99,-18 596.72,-21.98 375,-46 366.49,-46.92 357.8,-47.96 349.03,-49.07"/>
<polygon fill="red" stroke="red" points="348.57,-45.6 339.1,-50.36 349.47,-52.54 348.57,-45.6"/>
</g>
<!-- label0x56343ca24290&#45;&gt;label0x56343ca24310 -->
<g id="edge15" class="edge">
<title>label0x56343ca24290&#45;&gt;label0x56343ca24310</title>
<path fill="none" stroke="blue" d="M1764.75,-83.44C1756.22,-83.5 1747.63,-83.51 1739.07,-83.49"/>
<polygon fill="blue" stroke="blue" points="1739.05,-79.99 1729.04,-83.44 1739.02,-86.99 1739.05,-79.99"/>
</g>
</g>
</svg>
