<?xml version="1.0" encoding="UTF-8" standalone="no"?>
<!DOCTYPE svg PUBLIC "-//W3C//DTD SVG 1.1//EN"
 "http://www.w3.org/Graphics/SVG/1.1/DTD/svg11.dtd">
<!-- Generated by graphviz version 6.0.2 (20221011.1828)
 -->
<!-- Title: structs Pages: 1 -->
<svg width="2073pt" height="102pt"
 viewBox="0.00 0.00 2073.00 101.50" xmlns="http://www.w3.org/2000/svg" xmlns:xlink="http://www.w3.org/1999/xlink">
<g id="graph0" class="graph" transform="scale(1 1) rotate(0) translate(4 97.5)">
<title>structs</title>
<polygon fill="white" stroke="none" points="-4,4 -4,-97.5 2069,-97.5 2069,4 -4,4"/>
<!-- label0x5590f9944090 -->
<g id="node1" class="node">
<title>label0x5590f9944090</title>
<path fill="#f593a8" stroke="black" d="M12,-47C12,-47 325,-47 325,-47 331,-47 337,-53 337,-59 337,-59 337,-81 337,-81 337,-87 331,-93 325,-93 325,-93 12,-93 12,-93 6,-93 0,-87 0,-81 0,-81 0,-59 0,-59 0,-53 6,-47 12,-47"/>
<text text-anchor="middle" x="70" y="-77.8" font-family="Times,serif" font-size="14.00">index: 0</text>
<polyline fill="none" stroke="black" points="0,-70 140,-70"/>
<text text-anchor="middle" x="70" y="-54.8" font-family="Times,serif" font-size="14.00">addr: 0x5590f9944090</text>
<polyline fill="none" stroke="black" points="140,-47 140,-93"/>
<text text-anchor="middle" x="177" y="-66.3" font-family="Times,serif" font-size="14.00">val: 48879</text>
<polyline fill="none" stroke="black" points="214,-47 214,-93"/>
<text text-anchor="middle" x="275.5" y="-77.8" font-family="Times,serif" font-size="14.00">n: 0x5590f99442f0</text>
<polyline fill="none" stroke="black" points="214,-70 337,-70"/>
<text text-anchor="middle" x="275.5" y="-54.8" font-family="Times,serif" font-size="14.00">p: 0x5590f9944290</text>
</g>
<!-- label0x5590f99442f0 -->
<g id="node2" class="node">
<title>label0x5590f99442f0</title>
<path fill="#72eb6c" stroke="black" d="M385,-47C385,-47 669,-47 669,-47 675,-47 681,-53 681,-59 681,-59 681,-81 681,-81 681,-87 675,-93 669,-93 669,-93 385,-93 385,-93 379,-93 373,-87 373,-81 373,-81 373,-59 373,-59 373,-53 379,-47 385,-47"/>
<text text-anchor="middle" x="442" y="-77.8" font-family="Times,serif" font-size="14.00">index: 1</text>
<polyline fill="none" stroke="black" points="373,-70 511,-70"/>
<text text-anchor="middle" x="442" y="-54.8" font-family="Times,serif" font-size="14.00">addr: 0x5590f99442f0</text>
<polyline fill="none" stroke="black" points="511,-47 511,-93"/>
<text text-anchor="middle" x="534.5" y="-66.3" font-family="Times,serif" font-size="14.00">val: 8</text>
<polyline fill="none" stroke="black" points="558,-47 558,-93"/>
<text text-anchor="middle" x="619.5" y="-77.8" font-family="Times,serif" font-size="14.00">n: 0x5590f99442d0</text>
<polyline fill="none" stroke="black" points="558,-70 681,-70"/>
<text text-anchor="middle" x="619.5" y="-54.8" font-family="Times,serif" font-size="14.00">p: 0x5590f9944090</text>
</g>
<!-- label0x5590f9944090&#45;&gt;label0x5590f99442f0 -->
<g id="edge1" class="edge">
<title>label0x5590f9944090&#45;&gt;label0x5590f99442f0</title>
<path fill="none" stroke="#dce6e3" stroke-dasharray="5,2" d="M337.05,-56.52C348.98,-56.47 360.97,-56.51 372.82,-56.62"/>
</g>
<!-- label0x5590f9944090&#45;&gt;label0x5590f99442f0 -->
<g id="edge16" class="edge">
<title>label0x5590f9944090&#45;&gt;label0x5590f99442f0</title>
<path fill="none" stroke="red" d="M337.05,-83.48C345.62,-83.51 354.23,-83.51 362.79,-83.46"/>
<polygon fill="red" stroke="red" points="362.84,-86.96 372.82,-83.38 362.79,-79.96 362.84,-86.96"/>
</g>
<!-- label0x5590f9944290 -->
<g id="node6" class="node">
<title>label0x5590f9944290</title>
<path fill="#72eb6c" stroke="black" d="M1767,-47C1767,-47 2053,-47 2053,-47 2059,-47 2065,-53 2065,-59 2065,-59 2065,-81 2065,-81 2065,-87 2059,-93 2053,-93 2053,-93 1767,-93 1767,-93 1761,-93 1755,-87 1755,-81 1755,-81 1755,-59 1755,-59 1755,-53 1761,-47 1767,-47"/>
<text text-anchor="middle" x="1825" y="-77.8" font-family="Times,serif" font-size="14.00">index: 5</text>
<polyline fill="none" stroke="black" points="1755,-70 1895,-70"/>
<text text-anchor="middle" x="1825" y="-54.8" font-family="Times,serif" font-size="14.00">addr: 0x5590f9944290</text>
<polyline fill="none" stroke="black" points="1895,-47 1895,-93"/>
<text text-anchor="middle" x="1918.5" y="-66.3" font-family="Times,serif" font-size="14.00">val: 5</text>
<polyline fill="none" stroke="black" points="1942,-47 1942,-93"/>
<text text-anchor="middle" x="2003.5" y="-77.8" font-family="Times,serif" font-size="14.00">n: 0x5590f9944090</text>
<polyline fill="none" stroke="black" points="1942,-70 2065,-70"/>
<text text-anchor="middle" x="2003.5" y="-54.8" font-family="Times,serif" font-size="14.00">p: 0x5590f9944310</text>
</g>
<!-- label0x5590f9944090&#45;&gt;label0x5590f9944290 -->
<g id="edge17" class="edge">
<title>label0x5590f9944090&#45;&gt;label0x5590f9944290</title>
<path fill="none" stroke="blue" d="M248.97,-46.96C286.47,-39.63 331.9,-32.48 373,-28 593.38,-4 649.32,0 871,0 871,0 871,0 1219,0 1441.57,0 1497.87,-2.69 1719,-28 1753.97,-32 1792.26,-38.28 1825.24,-44.92"/>
<polygon fill="blue" stroke="blue" points="1824.8,-48.4 1835.3,-46.99 1826.21,-41.54 1824.8,-48.4"/>
</g>
<!-- label0x5590f99442f0&#45;&gt;label0x5590f9944090 -->
<g id="edge7" class="edge">
<title>label0x5590f99442f0&#45;&gt;label0x5590f9944090</title>
<path fill="none" stroke="blue" d="M372.82,-70C364.3,-70 355.71,-70 347.13,-70"/>
<polygon fill="blue" stroke="blue" points="347.05,-66.5 337.05,-70 347.05,-73.5 347.05,-66.5"/>
</g>
<!-- label0x5590f99442d0 -->
<g id="node3" class="node">
<title>label0x5590f99442d0</title>
<path fill="#72eb6c" stroke="black" d="M729,-47C729,-47 1015,-47 1015,-47 1021,-47 1027,-53 1027,-59 1027,-59 1027,-81 1027,-81 1027,-87 1021,-93 1015,-93 1015,-93 729,-93 729,-93 723,-93 717,-87 717,-81 717,-81 717,-59 717,-59 717,-53 723,-47 729,-47"/>
<text text-anchor="middle" x="787" y="-77.8" font-family="Times,serif" font-size="14.00">index: 2</text>
<polyline fill="none" stroke="black" points="717,-70 857,-70"/>
<text text-anchor="middle" x="787" y="-54.8" font-family="Times,serif" font-size="14.00">addr: 0x5590f99442d0</text>
<polyline fill="none" stroke="black" points="857,-47 857,-93"/>
<text text-anchor="middle" x="880.5" y="-66.3" font-family="Times,serif" font-size="14.00">val: 7</text>
<polyline fill="none" stroke="black" points="904,-47 904,-93"/>
<text text-anchor="middle" x="965.5" y="-77.8" font-family="Times,serif" font-size="14.00">n: 0x5590f99442b0</text>
<polyline fill="none" stroke="black" points="904,-70 1027,-70"/>
<text text-anchor="middle" x="965.5" y="-54.8" font-family="Times,serif" font-size="14.00">p: 0x5590f99442f0</text>
</g>
<!-- label0x5590f99442f0&#45;&gt;label0x5590f99442d0 -->
<g id="edge2" class="edge">
<title>label0x5590f99442f0&#45;&gt;label0x5590f99442d0</title>
<path fill="none" stroke="#dce6e3" stroke-dasharray="5,2" d="M681.44,-56.57C693.21,-56.48 705.1,-56.48 716.88,-56.56"/>
</g>
<!-- label0x5590f99442f0&#45;&gt;label0x5590f99442d0 -->
<g id="edge6" class="edge">
<title>label0x5590f99442f0&#45;&gt;label0x5590f99442d0</title>
<path fill="none" stroke="red" d="M681.44,-70C689.81,-70 698.24,-70 706.64,-70"/>
<polygon fill="red" stroke="red" points="706.88,-73.5 716.88,-70 706.88,-66.5 706.88,-73.5"/>
</g>
<!-- label0x5590f99442d0&#45;&gt;label0x5590f99442f0 -->
<g id="edge9" class="edge">
<title>label0x5590f99442d0&#45;&gt;label0x5590f99442f0</title>
<path fill="none" stroke="blue" d="M716.88,-83.44C708.51,-83.5 700.08,-83.51 691.67,-83.49"/>
<polygon fill="blue" stroke="blue" points="691.46,-79.99 681.44,-83.43 691.42,-86.99 691.46,-79.99"/>
</g>
<!-- label0x5590f99442b0 -->
<g id="node4" class="node">
<title>label0x5590f99442b0</title>
<path fill="#72eb6c" stroke="black" d="M1075,-47C1075,-47 1361,-47 1361,-47 1367,-47 1373,-53 1373,-59 1373,-59 1373,-81 1373,-81 1373,-87 1367,-93 1361,-93 1361,-93 1075,-93 1075,-93 1069,-93 1063,-87 1063,-81 1063,-81 1063,-59 1063,-59 1063,-53 1069,-47 1075,-47"/>
<text text-anchor="middle" x="1133" y="-77.8" font-family="Times,serif" font-size="14.00">index: 3</text>
<polyline fill="none" stroke="black" points="1063,-70 1203,-70"/>
<text text-anchor="middle" x="1133" y="-54.8" font-family="Times,serif" font-size="14.00">addr: 0x5590f99442b0</text>
<polyline fill="none" stroke="black" points="1203,-47 1203,-93"/>
<text text-anchor="middle" x="1226.5" y="-66.3" font-family="Times,serif" font-size="14.00">val: 6</text>
<polyline fill="none" stroke="black" points="1250,-47 1250,-93"/>
<text text-anchor="middle" x="1311.5" y="-77.8" font-family="Times,serif" font-size="14.00">n: 0x5590f9944310</text>
<polyline fill="none" stroke="black" points="1250,-70 1373,-70"/>
<text text-anchor="middle" x="1311.5" y="-54.8" font-family="Times,serif" font-size="14.00">p: 0x5590f99442d0</text>
</g>
<!-- label0x5590f99442d0&#45;&gt;label0x5590f99442b0 -->
<g id="edge3" class="edge">
<title>label0x5590f99442d0&#45;&gt;label0x5590f99442b0</title>
<path fill="none" stroke="#dce6e3" stroke-dasharray="5,2" d="M1027.14,-56.56C1039.03,-56.48 1051.03,-56.48 1062.92,-56.57"/>
</g>
<!-- label0x5590f99442d0&#45;&gt;label0x5590f99442b0 -->
<g id="edge8" class="edge">
<title>label0x5590f99442d0&#45;&gt;label0x5590f99442b0</title>
<path fill="none" stroke="red" d="M1027.14,-70C1035.68,-70 1044.29,-70 1052.86,-70"/>
<polygon fill="red" stroke="red" points="1052.92,-73.5 1062.92,-70 1052.92,-66.5 1052.92,-73.5"/>
</g>
<!-- label0x5590f99442b0&#45;&gt;label0x5590f99442d0 -->
<g id="edge11" class="edge">
<title>label0x5590f99442b0&#45;&gt;label0x5590f99442d0</title>
<path fill="none" stroke="blue" d="M1062.92,-83.43C1054.37,-83.5 1045.77,-83.51 1037.19,-83.49"/>
<polygon fill="blue" stroke="blue" points="1037.16,-79.99 1027.14,-83.44 1037.12,-86.99 1037.16,-79.99"/>
</g>
<!-- label0x5590f9944310 -->
<g id="node5" class="node">
<title>label0x5590f9944310</title>
<path fill="#72eb6c" stroke="black" d="M1421,-47C1421,-47 1707,-47 1707,-47 1713,-47 1719,-53 1719,-59 1719,-59 1719,-81 1719,-81 1719,-87 1713,-93 1707,-93 1707,-93 1421,-93 1421,-93 1415,-93 1409,-87 1409,-81 1409,-81 1409,-59 1409,-59 1409,-53 1415,-47 1421,-47"/>
<text text-anchor="middle" x="1479" y="-77.8" font-family="Times,serif" font-size="14.00">index: 4</text>
<polyline fill="none" stroke="black" points="1409,-70 1549,-70"/>
<text text-anchor="middle" x="1479" y="-54.8" font-family="Times,serif" font-size="14.00">addr: 0x5590f9944310</text>
<polyline fill="none" stroke="black" points="1549,-47 1549,-93"/>
<text text-anchor="middle" x="1572.5" y="-66.3" font-family="Times,serif" font-size="14.00">val: 1</text>
<polyline fill="none" stroke="black" points="1596,-47 1596,-93"/>
<text text-anchor="middle" x="1657.5" y="-77.8" font-family="Times,serif" font-size="14.00">n: 0x5590f9944290</text>
<polyline fill="none" stroke="black" points="1596,-70 1719,-70"/>
<text text-anchor="middle" x="1657.5" y="-54.8" font-family="Times,serif" font-size="14.00">p: 0x5590f99442b0</text>
</g>
<!-- label0x5590f99442b0&#45;&gt;label0x5590f9944310 -->
<g id="edge4" class="edge">
<title>label0x5590f99442b0&#45;&gt;label0x5590f9944310</title>
<path fill="none" stroke="#dce6e3" stroke-dasharray="5,2" d="M1373.14,-56.56C1385.03,-56.48 1397.03,-56.48 1408.92,-56.57"/>
</g>
<!-- label0x5590f99442b0&#45;&gt;label0x5590f9944310 -->
<g id="edge10" class="edge">
<title>label0x5590f99442b0&#45;&gt;label0x5590f9944310</title>
<path fill="none" stroke="red" d="M1373.14,-70C1381.68,-70 1390.29,-70 1398.86,-70"/>
<polygon fill="red" stroke="red" points="1398.92,-73.5 1408.92,-70 1398.92,-66.5 1398.92,-73.5"/>
</g>
<!-- label0x5590f9944310&#45;&gt;label0x5590f99442b0 -->
<g id="edge13" class="edge">
<title>label0x5590f9944310&#45;&gt;label0x5590f99442b0</title>
<path fill="none" stroke="blue" d="M1408.92,-83.43C1400.37,-83.5 1391.77,-83.51 1383.19,-83.49"/>
<polygon fill="blue" stroke="blue" points="1383.16,-79.99 1373.14,-83.44 1383.12,-86.99 1383.16,-79.99"/>
</g>
<!-- label0x5590f9944310&#45;&gt;label0x5590f9944290 -->
<g id="edge5" class="edge">
<title>label0x5590f9944310&#45;&gt;label0x5590f9944290</title>
<path fill="none" stroke="#dce6e3" stroke-dasharray="5,2" d="M1719.14,-56.56C1731.03,-56.48 1743.03,-56.48 1754.92,-56.57"/>
</g>
<!-- label0x5590f9944310&#45;&gt;label0x5590f9944290 -->
<g id="edge12" class="edge">
<title>label0x5590f9944310&#45;&gt;label0x5590f9944290</title>
<path fill="none" stroke="red" d="M1719.14,-70C1727.68,-70 1736.29,-70 1744.86,-70"/>
<polygon fill="red" stroke="red" points="1744.92,-73.5 1754.92,-70 1744.92,-66.5 1744.92,-73.5"/>
</g>
<!-- label0x5590f9944290&#45;&gt;label0x5590f9944090 -->
<g id="edge14" class="edge">
<title>label0x5590f9944290&#45;&gt;label0x5590f9944090</title>
<path fill="none" stroke="red" d="M1754.97,-50.67C1742.82,-48.94 1730.73,-47.34 1719,-46 1497.87,-20.69 1441.57,-18 1219,-18 871,-18 871,-18 871,-18 649.32,-18 593.38,-22 373,-46 364.62,-46.91 356.07,-47.94 347.44,-49.03"/>
<polygon fill="red" stroke="red" points="346.74,-45.6 337.27,-50.36 347.64,-52.54 346.74,-45.6"/>
</g>
<!-- label0x5590f9944290&#45;&gt;label0x5590f9944310 -->
<g id="edge15" class="edge">
<title>label0x5590f9944290&#45;&gt;label0x5590f9944310</title>
<path fill="none" stroke="blue" d="M1754.92,-83.43C1746.37,-83.5 1737.77,-83.51 1729.19,-83.49"/>
<polygon fill="blue" stroke="blue" points="1729.16,-79.99 1719.14,-83.44 1729.12,-86.99 1729.16,-79.99"/>
</g>
</g>
</svg>
