<?xml version="1.0" encoding="UTF-8" standalone="no"?>
<!DOCTYPE svg PUBLIC "-//W3C//DTD SVG 1.1//EN"
 "http://www.w3.org/Graphics/SVG/1.1/DTD/svg11.dtd">
<!-- Generated by graphviz version 6.0.2 (20221011.1828)
 -->
<!-- Title: structs Pages: 1 -->
<svg width="1389pt" height="92pt"
 viewBox="0.00 0.00 1389.00 91.73" xmlns="http://www.w3.org/2000/svg" xmlns:xlink="http://www.w3.org/1999/xlink">
<g id="graph0" class="graph" transform="scale(1 1) rotate(0) translate(4 87.73)">
<title>structs</title>
<polygon fill="white" stroke="none" points="-4,4 -4,-87.73 1385,-87.73 1385,4 -4,4"/>
<!-- label0x56343ca24090 -->
<g id="node1" class="node">
<title>label0x56343ca24090</title>
<path fill="#f593a8" stroke="black" d="M12,-37.23C12,-37.23 327,-37.23 327,-37.23 333,-37.23 339,-43.23 339,-49.23 339,-49.23 339,-71.23 339,-71.23 339,-77.23 333,-83.23 327,-83.23 327,-83.23 12,-83.23 12,-83.23 6,-83.23 0,-77.23 0,-71.23 0,-71.23 0,-49.23 0,-49.23 0,-43.23 6,-37.23 12,-37.23"/>
<text text-anchor="middle" x="70.5" y="-68.03" font-family="Times,serif" font-size="14.00">index: 0</text>
<polyline fill="none" stroke="black" points="0,-60.23 141,-60.23"/>
<text text-anchor="middle" x="70.5" y="-45.03" font-family="Times,serif" font-size="14.00">addr: 0x56343ca24090</text>
<polyline fill="none" stroke="black" points="141,-37.23 141,-83.23"/>
<text text-anchor="middle" x="178" y="-56.53" font-family="Times,serif" font-size="14.00">val: 48879</text>
<polyline fill="none" stroke="black" points="215,-37.23 215,-83.23"/>
<text text-anchor="middle" x="277" y="-68.03" font-family="Times,serif" font-size="14.00">n: 0x56343ca242f0</text>
<polyline fill="none" stroke="black" points="215,-60.23 339,-60.23"/>
<text text-anchor="middle" x="277" y="-45.03" font-family="Times,serif" font-size="14.00">p: 0x56343ca24310</text>
</g>
<!-- label0x56343ca242f0 -->
<g id="node2" class="node">
<title>label0x56343ca242f0</title>
<path fill="#72eb6c" stroke="black" d="M387,-37.23C387,-37.23 673,-37.23 673,-37.23 679,-37.23 685,-43.23 685,-49.23 685,-49.23 685,-71.23 685,-71.23 685,-77.23 679,-83.23 673,-83.23 673,-83.23 387,-83.23 387,-83.23 381,-83.23 375,-77.23 375,-71.23 375,-71.23 375,-49.23 375,-49.23 375,-43.23 381,-37.23 387,-37.23"/>
<text text-anchor="middle" x="444.5" y="-68.03" font-family="Times,serif" font-size="14.00">index: 1</text>
<polyline fill="none" stroke="black" points="375,-60.23 514,-60.23"/>
<text text-anchor="middle" x="444.5" y="-45.03" font-family="Times,serif" font-size="14.00">addr: 0x56343ca242f0</text>
<polyline fill="none" stroke="black" points="514,-37.23 514,-83.23"/>
<text text-anchor="middle" x="537.5" y="-56.53" font-family="Times,serif" font-size="14.00">val: 8</text>
<polyline fill="none" stroke="black" points="561,-37.23 561,-83.23"/>
<text text-anchor="middle" x="623" y="-68.03" font-family="Times,serif" font-size="14.00">n: 0x56343ca242b0</text>
<polyline fill="none" stroke="black" points="561,-60.23 685,-60.23"/>
<text text-anchor="middle" x="623" y="-45.03" font-family="Times,serif" font-size="14.00">p: 0x56343ca24090</text>
</g>
<!-- label0x56343ca24090&#45;&gt;label0x56343ca242f0 -->
<g id="edge1" class="edge">
<title>label0x56343ca24090&#45;&gt;label0x56343ca242f0</title>
<path fill="none" stroke="#dce6e3" stroke-dasharray="5,2" d="M339.25,-46.75C351.15,-46.71 363.11,-46.74 374.91,-46.85"/>
</g>
<!-- label0x56343ca24090&#45;&gt;label0x56343ca242f0 -->
<g id="edge10" class="edge">
<title>label0x56343ca24090&#45;&gt;label0x56343ca242f0</title>
<path fill="none" stroke="red" d="M339.25,-73.71C347.71,-73.75 356.2,-73.74 364.64,-73.69"/>
<polygon fill="red" stroke="red" points="364.94,-77.19 374.91,-73.62 364.89,-70.19 364.94,-77.19"/>
</g>
<!-- label0x56343ca24310 -->
<g id="node4" class="node">
<title>label0x56343ca24310</title>
<path fill="#72eb6c" stroke="black" d="M1081,-37.23C1081,-37.23 1369,-37.23 1369,-37.23 1375,-37.23 1381,-43.23 1381,-49.23 1381,-49.23 1381,-71.23 1381,-71.23 1381,-77.23 1375,-83.23 1369,-83.23 1369,-83.23 1081,-83.23 1081,-83.23 1075,-83.23 1069,-77.23 1069,-71.23 1069,-71.23 1069,-49.23 1069,-49.23 1069,-43.23 1075,-37.23 1081,-37.23"/>
<text text-anchor="middle" x="1139.5" y="-68.03" font-family="Times,serif" font-size="14.00">index: 3</text>
<polyline fill="none" stroke="black" points="1069,-60.23 1210,-60.23"/>
<text text-anchor="middle" x="1139.5" y="-45.03" font-family="Times,serif" font-size="14.00">addr: 0x56343ca24310</text>
<polyline fill="none" stroke="black" points="1210,-37.23 1210,-83.23"/>
<text text-anchor="middle" x="1233.5" y="-56.53" font-family="Times,serif" font-size="14.00">val: 1</text>
<polyline fill="none" stroke="black" points="1257,-37.23 1257,-83.23"/>
<text text-anchor="middle" x="1319" y="-68.03" font-family="Times,serif" font-size="14.00">n: 0x56343ca24090</text>
<polyline fill="none" stroke="black" points="1257,-60.23 1381,-60.23"/>
<text text-anchor="middle" x="1319" y="-45.03" font-family="Times,serif" font-size="14.00">p: 0x56343ca242b0</text>
</g>
<!-- label0x56343ca24090&#45;&gt;label0x56343ca24310 -->
<g id="edge11" class="edge">
<title>label0x56343ca24090&#45;&gt;label0x56343ca24310</title>
<path fill="none" stroke="blue" d="M244.94,-37.23C283.57,-29.27 331.62,-21.71 375,-18.23 666.51,5.13 741.62,6.75 1033,-18.23 1069.77,-21.39 1110.09,-27.9 1144.17,-35.01"/>
<polygon fill="blue" stroke="blue" points="1143.56,-38.46 1154.07,-37.14 1145.03,-31.62 1143.56,-38.46"/>
</g>
<!-- label0x56343ca242f0&#45;&gt;label0x56343ca24090 -->
<g id="edge5" class="edge">
<title>label0x56343ca242f0&#45;&gt;label0x56343ca24090</title>
<path fill="none" stroke="blue" d="M374.91,-60.23C366.43,-60.23 357.86,-60.23 349.3,-60.23"/>
<polygon fill="blue" stroke="blue" points="349.25,-56.73 339.25,-60.23 349.25,-63.73 349.25,-56.73"/>
</g>
<!-- label0x56343ca242b0 -->
<g id="node3" class="node">
<title>label0x56343ca242b0</title>
<path fill="#72eb6c" stroke="black" d="M733,-37.23C733,-37.23 1021,-37.23 1021,-37.23 1027,-37.23 1033,-43.23 1033,-49.23 1033,-49.23 1033,-71.23 1033,-71.23 1033,-77.23 1027,-83.23 1021,-83.23 1021,-83.23 733,-83.23 733,-83.23 727,-83.23 721,-77.23 721,-71.23 721,-71.23 721,-49.23 721,-49.23 721,-43.23 727,-37.23 733,-37.23"/>
<text text-anchor="middle" x="791.5" y="-68.03" font-family="Times,serif" font-size="14.00">index: 2</text>
<polyline fill="none" stroke="black" points="721,-60.23 862,-60.23"/>
<text text-anchor="middle" x="791.5" y="-45.03" font-family="Times,serif" font-size="14.00">addr: 0x56343ca242b0</text>
<polyline fill="none" stroke="black" points="862,-37.23 862,-83.23"/>
<text text-anchor="middle" x="885.5" y="-56.53" font-family="Times,serif" font-size="14.00">val: 6</text>
<polyline fill="none" stroke="black" points="909,-37.23 909,-83.23"/>
<text text-anchor="middle" x="971" y="-68.03" font-family="Times,serif" font-size="14.00">n: 0x56343ca24310</text>
<polyline fill="none" stroke="black" points="909,-60.23 1033,-60.23"/>
<text text-anchor="middle" x="971" y="-45.03" font-family="Times,serif" font-size="14.00">p: 0x56343ca242f0</text>
</g>
<!-- label0x56343ca242f0&#45;&gt;label0x56343ca242b0 -->
<g id="edge2" class="edge">
<title>label0x56343ca242f0&#45;&gt;label0x56343ca242b0</title>
<path fill="none" stroke="#dce6e3" stroke-dasharray="5,2" d="M685.09,-46.8C696.94,-46.71 708.9,-46.71 720.76,-46.79"/>
</g>
<!-- label0x56343ca242f0&#45;&gt;label0x56343ca242b0 -->
<g id="edge4" class="edge">
<title>label0x56343ca242f0&#45;&gt;label0x56343ca242b0</title>
<path fill="none" stroke="red" d="M685.09,-60.23C693.6,-60.23 702.18,-60.23 710.73,-60.23"/>
<polygon fill="red" stroke="red" points="710.76,-63.73 720.76,-60.23 710.76,-56.73 710.76,-63.73"/>
</g>
<!-- label0x56343ca242b0&#45;&gt;label0x56343ca242f0 -->
<g id="edge7" class="edge">
<title>label0x56343ca242b0&#45;&gt;label0x56343ca242f0</title>
<path fill="none" stroke="blue" d="M720.76,-73.67C712.24,-73.73 703.66,-73.75 695.11,-73.72"/>
<polygon fill="blue" stroke="blue" points="695.1,-70.22 685.09,-73.67 695.07,-77.22 695.1,-70.22"/>
</g>
<!-- label0x56343ca242b0&#45;&gt;label0x56343ca24310 -->
<g id="edge3" class="edge">
<title>label0x56343ca242b0&#45;&gt;label0x56343ca24310</title>
<path fill="none" stroke="#dce6e3" stroke-dasharray="5,2" d="M1033.04,-46.8C1044.9,-46.71 1056.88,-46.71 1068.75,-46.8"/>
</g>
<!-- label0x56343ca242b0&#45;&gt;label0x56343ca24310 -->
<g id="edge6" class="edge">
<title>label0x56343ca242b0&#45;&gt;label0x56343ca24310</title>
<path fill="none" stroke="red" d="M1033.04,-60.23C1041.56,-60.23 1050.15,-60.23 1058.72,-60.23"/>
<polygon fill="red" stroke="red" points="1058.75,-63.73 1068.75,-60.23 1058.75,-56.73 1058.75,-63.73"/>
</g>
<!-- label0x56343ca24310&#45;&gt;label0x56343ca24090 -->
<g id="edge8" class="edge">
<title>label0x56343ca24310&#45;&gt;label0x56343ca24090</title>
<path fill="none" stroke="red" d="M1068.97,-40.14C1056.83,-38.59 1044.73,-37.24 1033,-36.23 741.62,-11.25 666.51,-12.87 375,-36.23 366.47,-36.92 357.76,-37.76 348.97,-38.72"/>
<polygon fill="red" stroke="red" points="348.57,-35.24 339.03,-39.84 349.36,-42.2 348.57,-35.24"/>
</g>
<!-- label0x56343ca24310&#45;&gt;label0x56343ca242b0 -->
<g id="edge9" class="edge">
<title>label0x56343ca24310&#45;&gt;label0x56343ca242b0</title>
<path fill="none" stroke="blue" d="M1068.75,-73.67C1060.22,-73.73 1051.63,-73.75 1043.07,-73.72"/>
<polygon fill="blue" stroke="blue" points="1043.05,-70.22 1033.04,-73.67 1043.02,-77.22 1043.05,-70.22"/>
</g>
</g>
</svg>
