<?xml version="1.0" encoding="UTF-8" standalone="no"?>
<!DOCTYPE svg PUBLIC "-//W3C//DTD SVG 1.1//EN"
 "http://www.w3.org/Graphics/SVG/1.1/DTD/svg11.dtd">
<!-- Generated by graphviz version 6.0.2 (20221011.1828)
 -->
<!-- Title: structs Pages: 1 -->
<svg width="1381pt" height="92pt"
 viewBox="0.00 0.00 1381.00 91.71" xmlns="http://www.w3.org/2000/svg" xmlns:xlink="http://www.w3.org/1999/xlink">
<g id="graph0" class="graph" transform="scale(1 1) rotate(0) translate(4 87.71)">
<title>structs</title>
<polygon fill="white" stroke="none" points="-4,4 -4,-87.71 1377,-87.71 1377,4 -4,4"/>
<!-- label0x5590f9944090 -->
<g id="node1" class="node">
<title>label0x5590f9944090</title>
<path fill="#f593a8" stroke="black" d="M12,-37.21C12,-37.21 325,-37.21 325,-37.21 331,-37.21 337,-43.21 337,-49.21 337,-49.21 337,-71.21 337,-71.21 337,-77.21 331,-83.21 325,-83.21 325,-83.21 12,-83.21 12,-83.21 6,-83.21 0,-77.21 0,-71.21 0,-71.21 0,-49.21 0,-49.21 0,-43.21 6,-37.21 12,-37.21"/>
<text text-anchor="middle" x="70" y="-68.01" font-family="Times,serif" font-size="14.00">index: 0</text>
<polyline fill="none" stroke="black" points="0,-60.21 140,-60.21"/>
<text text-anchor="middle" x="70" y="-45.01" font-family="Times,serif" font-size="14.00">addr: 0x5590f9944090</text>
<polyline fill="none" stroke="black" points="140,-37.21 140,-83.21"/>
<text text-anchor="middle" x="177" y="-56.51" font-family="Times,serif" font-size="14.00">val: 48879</text>
<polyline fill="none" stroke="black" points="214,-37.21 214,-83.21"/>
<text text-anchor="middle" x="275.5" y="-68.01" font-family="Times,serif" font-size="14.00">n: 0x5590f99442f0</text>
<polyline fill="none" stroke="black" points="214,-60.21 337,-60.21"/>
<text text-anchor="middle" x="275.5" y="-45.01" font-family="Times,serif" font-size="14.00">p: 0x5590f9944310</text>
</g>
<!-- label0x5590f99442f0 -->
<g id="node2" class="node">
<title>label0x5590f99442f0</title>
<path fill="#72eb6c" stroke="black" d="M385,-37.21C385,-37.21 669,-37.21 669,-37.21 675,-37.21 681,-43.21 681,-49.21 681,-49.21 681,-71.21 681,-71.21 681,-77.21 675,-83.21 669,-83.21 669,-83.21 385,-83.21 385,-83.21 379,-83.21 373,-77.21 373,-71.21 373,-71.21 373,-49.21 373,-49.21 373,-43.21 379,-37.21 385,-37.21"/>
<text text-anchor="middle" x="442" y="-68.01" font-family="Times,serif" font-size="14.00">index: 1</text>
<polyline fill="none" stroke="black" points="373,-60.21 511,-60.21"/>
<text text-anchor="middle" x="442" y="-45.01" font-family="Times,serif" font-size="14.00">addr: 0x5590f99442f0</text>
<polyline fill="none" stroke="black" points="511,-37.21 511,-83.21"/>
<text text-anchor="middle" x="534.5" y="-56.51" font-family="Times,serif" font-size="14.00">val: 8</text>
<polyline fill="none" stroke="black" points="558,-37.21 558,-83.21"/>
<text text-anchor="middle" x="619.5" y="-68.01" font-family="Times,serif" font-size="14.00">n: 0x5590f99442b0</text>
<polyline fill="none" stroke="black" points="558,-60.21 681,-60.21"/>
<text text-anchor="middle" x="619.5" y="-45.01" font-family="Times,serif" font-size="14.00">p: 0x5590f9944090</text>
</g>
<!-- label0x5590f9944090&#45;&gt;label0x5590f99442f0 -->
<g id="edge1" class="edge">
<title>label0x5590f9944090&#45;&gt;label0x5590f99442f0</title>
<path fill="none" stroke="#dce6e3" stroke-dasharray="5,2" d="M337.05,-46.74C348.98,-46.69 360.97,-46.72 372.82,-46.83"/>
</g>
<!-- label0x5590f9944090&#45;&gt;label0x5590f99442f0 -->
<g id="edge10" class="edge">
<title>label0x5590f9944090&#45;&gt;label0x5590f99442f0</title>
<path fill="none" stroke="red" d="M337.05,-73.69C345.62,-73.73 354.23,-73.72 362.79,-73.67"/>
<polygon fill="red" stroke="red" points="362.84,-77.17 372.82,-73.59 362.79,-70.17 362.84,-77.17"/>
</g>
<!-- label0x5590f9944310 -->
<g id="node4" class="node">
<title>label0x5590f9944310</title>
<path fill="#72eb6c" stroke="black" d="M1075,-37.21C1075,-37.21 1361,-37.21 1361,-37.21 1367,-37.21 1373,-43.21 1373,-49.21 1373,-49.21 1373,-71.21 1373,-71.21 1373,-77.21 1367,-83.21 1361,-83.21 1361,-83.21 1075,-83.21 1075,-83.21 1069,-83.21 1063,-77.21 1063,-71.21 1063,-71.21 1063,-49.21 1063,-49.21 1063,-43.21 1069,-37.21 1075,-37.21"/>
<text text-anchor="middle" x="1133" y="-68.01" font-family="Times,serif" font-size="14.00">index: 3</text>
<polyline fill="none" stroke="black" points="1063,-60.21 1203,-60.21"/>
<text text-anchor="middle" x="1133" y="-45.01" font-family="Times,serif" font-size="14.00">addr: 0x5590f9944310</text>
<polyline fill="none" stroke="black" points="1203,-37.21 1203,-83.21"/>
<text text-anchor="middle" x="1226.5" y="-56.51" font-family="Times,serif" font-size="14.00">val: 1</text>
<polyline fill="none" stroke="black" points="1250,-37.21 1250,-83.21"/>
<text text-anchor="middle" x="1311.5" y="-68.01" font-family="Times,serif" font-size="14.00">n: 0x5590f9944090</text>
<polyline fill="none" stroke="black" points="1250,-60.21 1373,-60.21"/>
<text text-anchor="middle" x="1311.5" y="-45.01" font-family="Times,serif" font-size="14.00">p: 0x5590f99442b0</text>
</g>
<!-- label0x5590f9944090&#45;&gt;label0x5590f9944310 -->
<g id="edge11" class="edge">
<title>label0x5590f9944090&#45;&gt;label0x5590f9944310</title>
<path fill="none" stroke="blue" d="M243.57,-37.21C282.01,-29.25 329.83,-21.69 373,-18.21 662.73,5.12 737.41,6.75 1027,-18.21 1063.58,-21.37 1103.69,-27.88 1137.59,-34.99"/>
<polygon fill="blue" stroke="blue" points="1136.93,-38.43 1147.44,-37.12 1138.4,-31.59 1136.93,-38.43"/>
</g>
<!-- label0x5590f99442f0&#45;&gt;label0x5590f9944090 -->
<g id="edge5" class="edge">
<title>label0x5590f99442f0&#45;&gt;label0x5590f9944090</title>
<path fill="none" stroke="blue" d="M372.82,-60.21C364.3,-60.21 355.71,-60.21 347.13,-60.21"/>
<polygon fill="blue" stroke="blue" points="347.05,-56.71 337.05,-60.21 347.05,-63.71 347.05,-56.71"/>
</g>
<!-- label0x5590f99442b0 -->
<g id="node3" class="node">
<title>label0x5590f99442b0</title>
<path fill="#72eb6c" stroke="black" d="M729,-37.21C729,-37.21 1015,-37.21 1015,-37.21 1021,-37.21 1027,-43.21 1027,-49.21 1027,-49.21 1027,-71.21 1027,-71.21 1027,-77.21 1021,-83.21 1015,-83.21 1015,-83.21 729,-83.21 729,-83.21 723,-83.21 717,-77.21 717,-71.21 717,-71.21 717,-49.21 717,-49.21 717,-43.21 723,-37.21 729,-37.21"/>
<text text-anchor="middle" x="787" y="-68.01" font-family="Times,serif" font-size="14.00">index: 2</text>
<polyline fill="none" stroke="black" points="717,-60.21 857,-60.21"/>
<text text-anchor="middle" x="787" y="-45.01" font-family="Times,serif" font-size="14.00">addr: 0x5590f99442b0</text>
<polyline fill="none" stroke="black" points="857,-37.21 857,-83.21"/>
<text text-anchor="middle" x="880.5" y="-56.51" font-family="Times,serif" font-size="14.00">val: 6</text>
<polyline fill="none" stroke="black" points="904,-37.21 904,-83.21"/>
<text text-anchor="middle" x="965.5" y="-68.01" font-family="Times,serif" font-size="14.00">n: 0x5590f9944310</text>
<polyline fill="none" stroke="black" points="904,-60.21 1027,-60.21"/>
<text text-anchor="middle" x="965.5" y="-45.01" font-family="Times,serif" font-size="14.00">p: 0x5590f99442f0</text>
</g>
<!-- label0x5590f99442f0&#45;&gt;label0x5590f99442b0 -->
<g id="edge2" class="edge">
<title>label0x5590f99442f0&#45;&gt;label0x5590f99442b0</title>
<path fill="none" stroke="#dce6e3" stroke-dasharray="5,2" d="M681.44,-46.78C693.21,-46.69 705.1,-46.69 716.88,-46.78"/>
</g>
<!-- label0x5590f99442f0&#45;&gt;label0x5590f99442b0 -->
<g id="edge4" class="edge">
<title>label0x5590f99442f0&#45;&gt;label0x5590f99442b0</title>
<path fill="none" stroke="red" d="M681.44,-60.21C689.81,-60.21 698.24,-60.21 706.64,-60.21"/>
<polygon fill="red" stroke="red" points="706.88,-63.71 716.88,-60.21 706.88,-56.71 706.88,-63.71"/>
</g>
<!-- label0x5590f99442b0&#45;&gt;label0x5590f99442f0 -->
<g id="edge7" class="edge">
<title>label0x5590f99442b0&#45;&gt;label0x5590f99442f0</title>
<path fill="none" stroke="blue" d="M716.88,-73.65C708.51,-73.71 700.08,-73.73 691.67,-73.7"/>
<polygon fill="blue" stroke="blue" points="691.46,-70.2 681.44,-73.65 691.42,-77.2 691.46,-70.2"/>
</g>
<!-- label0x5590f99442b0&#45;&gt;label0x5590f9944310 -->
<g id="edge3" class="edge">
<title>label0x5590f99442b0&#45;&gt;label0x5590f9944310</title>
<path fill="none" stroke="#dce6e3" stroke-dasharray="5,2" d="M1027.14,-46.78C1039.03,-46.69 1051.03,-46.69 1062.92,-46.78"/>
</g>
<!-- label0x5590f99442b0&#45;&gt;label0x5590f9944310 -->
<g id="edge6" class="edge">
<title>label0x5590f99442b0&#45;&gt;label0x5590f9944310</title>
<path fill="none" stroke="red" d="M1027.14,-60.21C1035.68,-60.21 1044.29,-60.21 1052.86,-60.21"/>
<polygon fill="red" stroke="red" points="1052.92,-63.71 1062.92,-60.21 1052.92,-56.71 1052.92,-63.71"/>
</g>
<!-- label0x5590f9944310&#45;&gt;label0x5590f9944090 -->
<g id="edge8" class="edge">
<title>label0x5590f9944310&#45;&gt;label0x5590f9944090</title>
<path fill="none" stroke="red" d="M1062.79,-40.12C1050.71,-38.57 1038.67,-37.22 1027,-36.21 737.41,-11.25 662.73,-12.88 373,-36.21 364.6,-36.89 356.03,-37.72 347.38,-38.67"/>
<polygon fill="red" stroke="red" points="346.74,-35.22 337.2,-39.82 347.54,-42.17 346.74,-35.22"/>
</g>
<!-- label0x5590f9944310&#45;&gt;label0x5590f99442b0 -->
<g id="edge9" class="edge">
<title>label0x5590f9944310&#45;&gt;label0x5590f99442b0</title>
<path fill="none" stroke="blue" d="M1062.92,-73.65C1054.37,-73.71 1045.77,-73.73 1037.19,-73.7"/>
<polygon fill="blue" stroke="blue" points="1037.16,-70.2 1027.14,-73.65 1037.12,-77.2 1037.16,-70.2"/>
</g>
</g>
</svg>
