<?xml version="1.0" encoding="UTF-8" standalone="no"?>
<!DOCTYPE svg PUBLIC "-//W3C//DTD SVG 1.1//EN"
 "http://www.w3.org/Graphics/SVG/1.1/DTD/svg11.dtd">
<!-- Generated by graphviz version 6.0.2 (20221011.1828)
 -->
<!-- Title: structs Pages: 1 -->
<svg width="1037pt" height="81pt"
 viewBox="0.00 0.00 1037.00 80.88" xmlns="http://www.w3.org/2000/svg" xmlns:xlink="http://www.w3.org/1999/xlink">
<g id="graph0" class="graph" transform="scale(1 1) rotate(0) translate(4 76.88)">
<title>structs</title>
<polygon fill="white" stroke="none" points="-4,4 -4,-76.88 1033,-76.88 1033,4 -4,4"/>
<!-- label0x5590f9944090 -->
<g id="node1" class="node">
<title>label0x5590f9944090</title>
<path fill="#f593a8" stroke="black" d="M12,-26.38C12,-26.38 325,-26.38 325,-26.38 331,-26.38 337,-32.38 337,-38.38 337,-38.38 337,-60.38 337,-60.38 337,-66.38 331,-72.38 325,-72.38 325,-72.38 12,-72.38 12,-72.38 6,-72.38 0,-66.38 0,-60.38 0,-60.38 0,-38.38 0,-38.38 0,-32.38 6,-26.38 12,-26.38"/>
<text text-anchor="middle" x="70" y="-57.18" font-family="Times,serif" font-size="14.00">index: 0</text>
<polyline fill="none" stroke="black" points="0,-49.38 140,-49.38"/>
<text text-anchor="middle" x="70" y="-34.18" font-family="Times,serif" font-size="14.00">addr: 0x5590f9944090</text>
<polyline fill="none" stroke="black" points="140,-26.38 140,-72.38"/>
<text text-anchor="middle" x="177" y="-45.68" font-family="Times,serif" font-size="14.00">val: 48879</text>
<polyline fill="none" stroke="black" points="214,-26.38 214,-72.38"/>
<text text-anchor="middle" x="275.5" y="-57.18" font-family="Times,serif" font-size="14.00">n: 0x5590f99442b0</text>
<polyline fill="none" stroke="black" points="214,-49.38 337,-49.38"/>
<text text-anchor="middle" x="275.5" y="-34.18" font-family="Times,serif" font-size="14.00">p: 0x5590f9944310</text>
</g>
<!-- label0x5590f99442b0 -->
<g id="node2" class="node">
<title>label0x5590f99442b0</title>
<path fill="#72eb6c" stroke="black" d="M385,-26.38C385,-26.38 671,-26.38 671,-26.38 677,-26.38 683,-32.38 683,-38.38 683,-38.38 683,-60.38 683,-60.38 683,-66.38 677,-72.38 671,-72.38 671,-72.38 385,-72.38 385,-72.38 379,-72.38 373,-66.38 373,-60.38 373,-60.38 373,-38.38 373,-38.38 373,-32.38 379,-26.38 385,-26.38"/>
<text text-anchor="middle" x="443" y="-57.18" font-family="Times,serif" font-size="14.00">index: 1</text>
<polyline fill="none" stroke="black" points="373,-49.38 513,-49.38"/>
<text text-anchor="middle" x="443" y="-34.18" font-family="Times,serif" font-size="14.00">addr: 0x5590f99442b0</text>
<polyline fill="none" stroke="black" points="513,-26.38 513,-72.38"/>
<text text-anchor="middle" x="536.5" y="-45.68" font-family="Times,serif" font-size="14.00">val: 6</text>
<polyline fill="none" stroke="black" points="560,-26.38 560,-72.38"/>
<text text-anchor="middle" x="621.5" y="-57.18" font-family="Times,serif" font-size="14.00">n: 0x5590f9944310</text>
<polyline fill="none" stroke="black" points="560,-49.38 683,-49.38"/>
<text text-anchor="middle" x="621.5" y="-34.18" font-family="Times,serif" font-size="14.00">p: 0x5590f9944090</text>
</g>
<!-- label0x5590f9944090&#45;&gt;label0x5590f99442b0 -->
<g id="edge1" class="edge">
<title>label0x5590f9944090&#45;&gt;label0x5590f99442b0</title>
<path fill="none" stroke="#dce6e3" stroke-dasharray="5,2" d="M337.26,-35.9C349.14,-35.85 361.09,-35.88 372.89,-35.99"/>
</g>
<!-- label0x5590f9944090&#45;&gt;label0x5590f99442b0 -->
<g id="edge7" class="edge">
<title>label0x5590f9944090&#45;&gt;label0x5590f99442b0</title>
<path fill="none" stroke="red" d="M337.26,-62.85C345.71,-62.89 354.19,-62.88 362.63,-62.84"/>
<polygon fill="red" stroke="red" points="362.92,-66.34 372.89,-62.76 362.87,-59.34 362.92,-66.34"/>
</g>
<!-- label0x5590f9944310 -->
<g id="node3" class="node">
<title>label0x5590f9944310</title>
<path fill="#72eb6c" stroke="black" d="M731,-26.38C731,-26.38 1017,-26.38 1017,-26.38 1023,-26.38 1029,-32.38 1029,-38.38 1029,-38.38 1029,-60.38 1029,-60.38 1029,-66.38 1023,-72.38 1017,-72.38 1017,-72.38 731,-72.38 731,-72.38 725,-72.38 719,-66.38 719,-60.38 719,-60.38 719,-38.38 719,-38.38 719,-32.38 725,-26.38 731,-26.38"/>
<text text-anchor="middle" x="789" y="-57.18" font-family="Times,serif" font-size="14.00">index: 2</text>
<polyline fill="none" stroke="black" points="719,-49.38 859,-49.38"/>
<text text-anchor="middle" x="789" y="-34.18" font-family="Times,serif" font-size="14.00">addr: 0x5590f9944310</text>
<polyline fill="none" stroke="black" points="859,-26.38 859,-72.38"/>
<text text-anchor="middle" x="882.5" y="-45.68" font-family="Times,serif" font-size="14.00">val: 1</text>
<polyline fill="none" stroke="black" points="906,-26.38 906,-72.38"/>
<text text-anchor="middle" x="967.5" y="-57.18" font-family="Times,serif" font-size="14.00">n: 0x5590f9944090</text>
<polyline fill="none" stroke="black" points="906,-49.38 1029,-49.38"/>
<text text-anchor="middle" x="967.5" y="-34.18" font-family="Times,serif" font-size="14.00">p: 0x5590f99442b0</text>
</g>
<!-- label0x5590f9944090&#45;&gt;label0x5590f9944310 -->
<g id="edge8" class="edge">
<title>label0x5590f9944090&#45;&gt;label0x5590f9944310</title>
<path fill="none" stroke="blue" d="M245.99,-26.35C284.01,-18.78 330.75,-11.68 373,-8.38 510.36,2.36 545.7,3.1 683,-8.38 718.8,-11.37 758,-17.48 791.44,-24.24"/>
<polygon fill="blue" stroke="blue" points="791.13,-27.75 801.63,-26.35 792.55,-20.89 791.13,-27.75"/>
</g>
<!-- label0x5590f99442b0&#45;&gt;label0x5590f9944090 -->
<g id="edge4" class="edge">
<title>label0x5590f99442b0&#45;&gt;label0x5590f9944090</title>
<path fill="none" stroke="blue" d="M372.89,-49.38C364.41,-49.38 355.85,-49.38 347.3,-49.38"/>
<polygon fill="blue" stroke="blue" points="347.26,-45.88 337.26,-49.38 347.26,-52.88 347.26,-45.88"/>
</g>
<!-- label0x5590f99442b0&#45;&gt;label0x5590f9944310 -->
<g id="edge2" class="edge">
<title>label0x5590f99442b0&#45;&gt;label0x5590f9944310</title>
<path fill="none" stroke="#dce6e3" stroke-dasharray="5,2" d="M683.14,-35.94C695.03,-35.86 707.03,-35.86 718.92,-35.94"/>
</g>
<!-- label0x5590f99442b0&#45;&gt;label0x5590f9944310 -->
<g id="edge3" class="edge">
<title>label0x5590f99442b0&#45;&gt;label0x5590f9944310</title>
<path fill="none" stroke="red" d="M683.14,-49.38C691.68,-49.38 700.29,-49.38 708.86,-49.38"/>
<polygon fill="red" stroke="red" points="708.92,-52.88 718.92,-49.38 708.92,-45.88 708.92,-52.88"/>
</g>
<!-- label0x5590f9944310&#45;&gt;label0x5590f9944090 -->
<g id="edge5" class="edge">
<title>label0x5590f9944310&#45;&gt;label0x5590f9944090</title>
<path fill="none" stroke="red" d="M718.77,-30.17C706.7,-28.66 694.67,-27.35 683,-26.38 545.7,-14.9 510.36,-15.64 373,-26.38 364.61,-27.03 356.04,-27.84 347.39,-28.75"/>
<polygon fill="red" stroke="red" points="346.77,-25.3 337.22,-29.88 347.54,-32.26 346.77,-25.3"/>
</g>
<!-- label0x5590f9944310&#45;&gt;label0x5590f99442b0 -->
<g id="edge6" class="edge">
<title>label0x5590f9944310&#45;&gt;label0x5590f99442b0</title>
<path fill="none" stroke="blue" d="M718.92,-62.81C710.37,-62.87 701.77,-62.89 693.19,-62.86"/>
<polygon fill="blue" stroke="blue" points="693.16,-59.36 683.14,-62.81 693.12,-66.36 693.16,-59.36"/>
</g>
</g>
</svg>
