<?xml version="1.0" encoding="UTF-8" standalone="no"?>
<!DOCTYPE svg PUBLIC "-//W3C//DTD SVG 1.1//EN"
 "http://www.w3.org/Graphics/SVG/1.1/DTD/svg11.dtd">
<!-- Generated by graphviz version 6.0.2 (20221011.1828)
 -->
<!-- Title: structs Pages: 1 -->
<svg width="1397pt" height="92pt"
 viewBox="0.00 0.00 1397.00 92.16" xmlns="http://www.w3.org/2000/svg" xmlns:xlink="http://www.w3.org/1999/xlink">
<g id="graph0" class="graph" transform="scale(1 1) rotate(0) translate(4 88.16)">
<title>structs</title>
<polygon fill="white" stroke="none" points="-4,4 -4,-88.16 1393,-88.16 1393,4 -4,4"/>
<!-- label0x5590f9944090 -->
<g id="node1" class="node">
<title>label0x5590f9944090</title>
<path fill="#f593a8" stroke="black" d="M12,-37.66C12,-37.66 325,-37.66 325,-37.66 331,-37.66 337,-43.66 337,-49.66 337,-49.66 337,-71.66 337,-71.66 337,-77.66 331,-83.66 325,-83.66 325,-83.66 12,-83.66 12,-83.66 6,-83.66 0,-77.66 0,-71.66 0,-71.66 0,-49.66 0,-49.66 0,-43.66 6,-37.66 12,-37.66"/>
<text text-anchor="middle" x="70" y="-68.46" font-family="Times,serif" font-size="14.00">index: 0</text>
<polyline fill="none" stroke="black" points="0,-60.66 140,-60.66"/>
<text text-anchor="middle" x="70" y="-45.46" font-family="Times,serif" font-size="14.00">addr: 0x5590f9944090</text>
<polyline fill="none" stroke="black" points="140,-37.66 140,-83.66"/>
<text text-anchor="middle" x="177" y="-56.96" font-family="Times,serif" font-size="14.00">val: 48879</text>
<polyline fill="none" stroke="black" points="214,-37.66 214,-83.66"/>
<text text-anchor="middle" x="275.5" y="-68.46" font-family="Times,serif" font-size="14.00">n: 0x5590f99442b0</text>
<polyline fill="none" stroke="black" points="214,-60.66 337,-60.66"/>
<text text-anchor="middle" x="275.5" y="-45.46" font-family="Times,serif" font-size="14.00">p: 0x5590f9944310</text>
</g>
<!-- label0x5590f99442b0 -->
<g id="node2" class="node">
<title>label0x5590f99442b0</title>
<path fill="#72eb6c" stroke="black" d="M385,-37.66C385,-37.66 671,-37.66 671,-37.66 677,-37.66 683,-43.66 683,-49.66 683,-49.66 683,-71.66 683,-71.66 683,-77.66 677,-83.66 671,-83.66 671,-83.66 385,-83.66 385,-83.66 379,-83.66 373,-77.66 373,-71.66 373,-71.66 373,-49.66 373,-49.66 373,-43.66 379,-37.66 385,-37.66"/>
<text text-anchor="middle" x="443" y="-68.46" font-family="Times,serif" font-size="14.00">index: 1</text>
<polyline fill="none" stroke="black" points="373,-60.66 513,-60.66"/>
<text text-anchor="middle" x="443" y="-45.46" font-family="Times,serif" font-size="14.00">addr: 0x5590f99442b0</text>
<polyline fill="none" stroke="black" points="513,-37.66 513,-83.66"/>
<text text-anchor="middle" x="536.5" y="-56.96" font-family="Times,serif" font-size="14.00">val: 6</text>
<polyline fill="none" stroke="black" points="560,-37.66 560,-83.66"/>
<text text-anchor="middle" x="621.5" y="-68.46" font-family="Times,serif" font-size="14.00">n: 0x5590f9944330</text>
<polyline fill="none" stroke="black" points="560,-60.66 683,-60.66"/>
<text text-anchor="middle" x="621.5" y="-45.46" font-family="Times,serif" font-size="14.00">p: 0x5590f9944090</text>
</g>
<!-- label0x5590f9944090&#45;&gt;label0x5590f99442b0 -->
<g id="edge1" class="edge">
<title>label0x5590f9944090&#45;&gt;label0x5590f99442b0</title>
<path fill="none" stroke="#dce6e3" stroke-dasharray="5,2" d="M337.26,-47.18C349.14,-47.13 361.09,-47.16 372.89,-47.27"/>
</g>
<!-- label0x5590f9944090&#45;&gt;label0x5590f99442b0 -->
<g id="edge10" class="edge">
<title>label0x5590f9944090&#45;&gt;label0x5590f99442b0</title>
<path fill="none" stroke="red" d="M337.26,-74.14C345.71,-74.17 354.19,-74.17 362.63,-74.12"/>
<polygon fill="red" stroke="red" points="362.92,-77.62 372.89,-74.05 362.87,-70.62 362.92,-77.62"/>
</g>
<!-- label0x5590f9944310 -->
<g id="node4" class="node">
<title>label0x5590f9944310</title>
<path fill="#72eb6c" stroke="black" d="M1091,-37.66C1091,-37.66 1377,-37.66 1377,-37.66 1383,-37.66 1389,-43.66 1389,-49.66 1389,-49.66 1389,-71.66 1389,-71.66 1389,-77.66 1383,-83.66 1377,-83.66 1377,-83.66 1091,-83.66 1091,-83.66 1085,-83.66 1079,-77.66 1079,-71.66 1079,-71.66 1079,-49.66 1079,-49.66 1079,-43.66 1085,-37.66 1091,-37.66"/>
<text text-anchor="middle" x="1149" y="-68.46" font-family="Times,serif" font-size="14.00">index: 3</text>
<polyline fill="none" stroke="black" points="1079,-60.66 1219,-60.66"/>
<text text-anchor="middle" x="1149" y="-45.46" font-family="Times,serif" font-size="14.00">addr: 0x5590f9944310</text>
<polyline fill="none" stroke="black" points="1219,-37.66 1219,-83.66"/>
<text text-anchor="middle" x="1242.5" y="-56.96" font-family="Times,serif" font-size="14.00">val: 1</text>
<polyline fill="none" stroke="black" points="1266,-37.66 1266,-83.66"/>
<text text-anchor="middle" x="1327.5" y="-68.46" font-family="Times,serif" font-size="14.00">n: 0x5590f9944090</text>
<polyline fill="none" stroke="black" points="1266,-60.66 1389,-60.66"/>
<text text-anchor="middle" x="1327.5" y="-45.46" font-family="Times,serif" font-size="14.00">p: 0x5590f9944330</text>
</g>
<!-- label0x5590f9944090&#45;&gt;label0x5590f9944310 -->
<g id="edge11" class="edge">
<title>label0x5590f9944090&#45;&gt;label0x5590f9944310</title>
<path fill="none" stroke="blue" d="M243.57,-37.66C282.01,-29.7 329.83,-22.14 373,-18.66 669.82,5.25 746.32,6.91 1043,-18.66 1079.58,-21.81 1119.69,-28.32 1153.59,-35.44"/>
<polygon fill="blue" stroke="blue" points="1152.93,-38.88 1163.44,-37.56 1154.4,-32.03 1152.93,-38.88"/>
</g>
<!-- label0x5590f99442b0&#45;&gt;label0x5590f9944090 -->
<g id="edge5" class="edge">
<title>label0x5590f99442b0&#45;&gt;label0x5590f9944090</title>
<path fill="none" stroke="blue" d="M372.89,-60.66C364.41,-60.66 355.85,-60.66 347.3,-60.66"/>
<polygon fill="blue" stroke="blue" points="347.26,-57.16 337.26,-60.66 347.26,-64.16 347.26,-57.16"/>
</g>
<!-- label0x5590f9944330 -->
<g id="node3" class="node">
<title>label0x5590f9944330</title>
<path fill="#72eb6c" stroke="black" d="M731,-37.66C731,-37.66 1031,-37.66 1031,-37.66 1037,-37.66 1043,-43.66 1043,-49.66 1043,-49.66 1043,-71.66 1043,-71.66 1043,-77.66 1037,-83.66 1031,-83.66 1031,-83.66 731,-83.66 731,-83.66 725,-83.66 719,-77.66 719,-71.66 719,-71.66 719,-49.66 719,-49.66 719,-43.66 725,-37.66 731,-37.66"/>
<text text-anchor="middle" x="789" y="-68.46" font-family="Times,serif" font-size="14.00">index: 2</text>
<polyline fill="none" stroke="black" points="719,-60.66 859,-60.66"/>
<text text-anchor="middle" x="789" y="-45.46" font-family="Times,serif" font-size="14.00">addr: 0x5590f9944330</text>
<polyline fill="none" stroke="black" points="859,-37.66 859,-83.66"/>
<text text-anchor="middle" x="889.5" y="-56.96" font-family="Times,serif" font-size="14.00">val: 200</text>
<polyline fill="none" stroke="black" points="920,-37.66 920,-83.66"/>
<text text-anchor="middle" x="981.5" y="-68.46" font-family="Times,serif" font-size="14.00">n: 0x5590f9944310</text>
<polyline fill="none" stroke="black" points="920,-60.66 1043,-60.66"/>
<text text-anchor="middle" x="981.5" y="-45.46" font-family="Times,serif" font-size="14.00">p: 0x5590f99442b0</text>
</g>
<!-- label0x5590f99442b0&#45;&gt;label0x5590f9944330 -->
<g id="edge2" class="edge">
<title>label0x5590f99442b0&#45;&gt;label0x5590f9944330</title>
<path fill="none" stroke="#dce6e3" stroke-dasharray="5,2" d="M683.21,-47.25C695.08,-47.15 707.08,-47.13 719,-47.2"/>
</g>
<!-- label0x5590f99442b0&#45;&gt;label0x5590f9944330 -->
<g id="edge4" class="edge">
<title>label0x5590f99442b0&#45;&gt;label0x5590f9944330</title>
<path fill="none" stroke="red" d="M683.21,-60.66C691.74,-60.66 700.34,-60.66 708.93,-60.66"/>
<polygon fill="red" stroke="red" points="709,-64.16 719,-60.66 709,-57.16 709,-64.16"/>
</g>
<!-- label0x5590f9944330&#45;&gt;label0x5590f99442b0 -->
<g id="edge7" class="edge">
<title>label0x5590f9944330&#45;&gt;label0x5590f99442b0</title>
<path fill="none" stroke="blue" d="M719,-74.12C710.44,-74.17 701.83,-74.17 693.25,-74.14"/>
<polygon fill="blue" stroke="blue" points="693.23,-70.64 683.21,-74.07 693.19,-77.64 693.23,-70.64"/>
</g>
<!-- label0x5590f9944330&#45;&gt;label0x5590f9944310 -->
<g id="edge3" class="edge">
<title>label0x5590f9944330&#45;&gt;label0x5590f9944310</title>
<path fill="none" stroke="#dce6e3" stroke-dasharray="5,2" d="M1043.12,-47.2C1055.01,-47.13 1067,-47.15 1078.85,-47.25"/>
</g>
<!-- label0x5590f9944330&#45;&gt;label0x5590f9944310 -->
<g id="edge6" class="edge">
<title>label0x5590f9944330&#45;&gt;label0x5590f9944310</title>
<path fill="none" stroke="red" d="M1043.12,-60.66C1051.67,-60.66 1060.26,-60.66 1068.82,-60.66"/>
<polygon fill="red" stroke="red" points="1068.85,-64.16 1078.85,-60.66 1068.85,-57.16 1068.85,-64.16"/>
</g>
<!-- label0x5590f9944310&#45;&gt;label0x5590f9944090 -->
<g id="edge8" class="edge">
<title>label0x5590f9944310&#45;&gt;label0x5590f9944090</title>
<path fill="none" stroke="red" d="M1078.79,-40.57C1066.71,-39.01 1054.67,-37.67 1043,-36.66 746.32,-11.09 669.82,-12.75 373,-36.66 364.6,-37.34 356.03,-38.17 347.38,-39.11"/>
<polygon fill="red" stroke="red" points="346.74,-35.66 337.2,-40.27 347.54,-42.62 346.74,-35.66"/>
</g>
<!-- label0x5590f9944310&#45;&gt;label0x5590f9944330 -->
<g id="edge9" class="edge">
<title>label0x5590f9944310&#45;&gt;label0x5590f9944330</title>
<path fill="none" stroke="blue" d="M1078.85,-74.07C1070.33,-74.14 1061.74,-74.17 1053.17,-74.16"/>
<polygon fill="blue" stroke="blue" points="1053.13,-70.66 1043.12,-74.12 1053.1,-77.66 1053.13,-70.66"/>
</g>
</g>
</svg>
