<?xml version="1.0" encoding="UTF-8" standalone="no"?>
<!DOCTYPE svg PUBLIC "-//W3C//DTD SVG 1.1//EN"
 "http://www.w3.org/Graphics/SVG/1.1/DTD/svg11.dtd">
<!-- Generated by graphviz version 6.0.2 (20221011.1828)
 -->
<!-- Title: structs Pages: 1 -->
<svg width="1405pt" height="92pt"
 viewBox="0.00 0.00 1405.00 92.18" xmlns="http://www.w3.org/2000/svg" xmlns:xlink="http://www.w3.org/1999/xlink">
<g id="graph0" class="graph" transform="scale(1 1) rotate(0) translate(4 88.18)">
<title>structs</title>
<polygon fill="white" stroke="none" points="-4,4 -4,-88.18 1401,-88.18 1401,4 -4,4"/>
<!-- label0x56343ca24090 -->
<g id="node1" class="node">
<title>label0x56343ca24090</title>
<path fill="#f593a8" stroke="black" d="M12,-37.68C12,-37.68 327,-37.68 327,-37.68 333,-37.68 339,-43.68 339,-49.68 339,-49.68 339,-71.68 339,-71.68 339,-77.68 333,-83.68 327,-83.68 327,-83.68 12,-83.68 12,-83.68 6,-83.68 0,-77.68 0,-71.68 0,-71.68 0,-49.68 0,-49.68 0,-43.68 6,-37.68 12,-37.68"/>
<text text-anchor="middle" x="70.5" y="-68.48" font-family="Times,serif" font-size="14.00">index: 0</text>
<polyline fill="none" stroke="black" points="0,-60.68 141,-60.68"/>
<text text-anchor="middle" x="70.5" y="-45.48" font-family="Times,serif" font-size="14.00">addr: 0x56343ca24090</text>
<polyline fill="none" stroke="black" points="141,-37.68 141,-83.68"/>
<text text-anchor="middle" x="178" y="-56.98" font-family="Times,serif" font-size="14.00">val: 48879</text>
<polyline fill="none" stroke="black" points="215,-37.68 215,-83.68"/>
<text text-anchor="middle" x="277" y="-68.48" font-family="Times,serif" font-size="14.00">n: 0x56343ca242b0</text>
<polyline fill="none" stroke="black" points="215,-60.68 339,-60.68"/>
<text text-anchor="middle" x="277" y="-45.48" font-family="Times,serif" font-size="14.00">p: 0x56343ca24310</text>
</g>
<!-- label0x56343ca242b0 -->
<g id="node2" class="node">
<title>label0x56343ca242b0</title>
<path fill="#72eb6c" stroke="black" d="M387,-37.68C387,-37.68 675,-37.68 675,-37.68 681,-37.68 687,-43.68 687,-49.68 687,-49.68 687,-71.68 687,-71.68 687,-77.68 681,-83.68 675,-83.68 675,-83.68 387,-83.68 387,-83.68 381,-83.68 375,-77.68 375,-71.68 375,-71.68 375,-49.68 375,-49.68 375,-43.68 381,-37.68 387,-37.68"/>
<text text-anchor="middle" x="445.5" y="-68.48" font-family="Times,serif" font-size="14.00">index: 1</text>
<polyline fill="none" stroke="black" points="375,-60.68 516,-60.68"/>
<text text-anchor="middle" x="445.5" y="-45.48" font-family="Times,serif" font-size="14.00">addr: 0x56343ca242b0</text>
<polyline fill="none" stroke="black" points="516,-37.68 516,-83.68"/>
<text text-anchor="middle" x="539.5" y="-56.98" font-family="Times,serif" font-size="14.00">val: 6</text>
<polyline fill="none" stroke="black" points="563,-37.68 563,-83.68"/>
<text text-anchor="middle" x="625" y="-68.48" font-family="Times,serif" font-size="14.00">n: 0x56343ca24330</text>
<polyline fill="none" stroke="black" points="563,-60.68 687,-60.68"/>
<text text-anchor="middle" x="625" y="-45.48" font-family="Times,serif" font-size="14.00">p: 0x56343ca24090</text>
</g>
<!-- label0x56343ca24090&#45;&gt;label0x56343ca242b0 -->
<g id="edge1" class="edge">
<title>label0x56343ca24090&#45;&gt;label0x56343ca242b0</title>
<path fill="none" stroke="#dce6e3" stroke-dasharray="5,2" d="M339.2,-47.2C351.06,-47.15 362.98,-47.18 374.76,-47.29"/>
</g>
<!-- label0x56343ca24090&#45;&gt;label0x56343ca242b0 -->
<g id="edge10" class="edge">
<title>label0x56343ca24090&#45;&gt;label0x56343ca242b0</title>
<path fill="none" stroke="red" d="M339.2,-74.15C347.63,-74.19 356.09,-74.18 364.51,-74.14"/>
<polygon fill="red" stroke="red" points="364.78,-77.64 374.76,-74.07 364.73,-70.64 364.78,-77.64"/>
</g>
<!-- label0x56343ca24310 -->
<g id="node4" class="node">
<title>label0x56343ca24310</title>
<path fill="#72eb6c" stroke="black" d="M1097,-37.68C1097,-37.68 1385,-37.68 1385,-37.68 1391,-37.68 1397,-43.68 1397,-49.68 1397,-49.68 1397,-71.68 1397,-71.68 1397,-77.68 1391,-83.68 1385,-83.68 1385,-83.68 1097,-83.68 1097,-83.68 1091,-83.68 1085,-77.68 1085,-71.68 1085,-71.68 1085,-49.68 1085,-49.68 1085,-43.68 1091,-37.68 1097,-37.68"/>
<text text-anchor="middle" x="1155.5" y="-68.48" font-family="Times,serif" font-size="14.00">index: 3</text>
<polyline fill="none" stroke="black" points="1085,-60.68 1226,-60.68"/>
<text text-anchor="middle" x="1155.5" y="-45.48" font-family="Times,serif" font-size="14.00">addr: 0x56343ca24310</text>
<polyline fill="none" stroke="black" points="1226,-37.68 1226,-83.68"/>
<text text-anchor="middle" x="1249.5" y="-56.98" font-family="Times,serif" font-size="14.00">val: 1</text>
<polyline fill="none" stroke="black" points="1273,-37.68 1273,-83.68"/>
<text text-anchor="middle" x="1335" y="-68.48" font-family="Times,serif" font-size="14.00">n: 0x56343ca24090</text>
<polyline fill="none" stroke="black" points="1273,-60.68 1397,-60.68"/>
<text text-anchor="middle" x="1335" y="-45.48" font-family="Times,serif" font-size="14.00">p: 0x56343ca24330</text>
</g>
<!-- label0x56343ca24090&#45;&gt;label0x56343ca24310 -->
<g id="edge11" class="edge">
<title>label0x56343ca24090&#45;&gt;label0x56343ca24310</title>
<path fill="none" stroke="blue" d="M244.94,-37.68C283.57,-29.72 331.62,-22.15 375,-18.68 673.6,5.26 750.54,6.92 1049,-18.68 1085.77,-21.83 1126.09,-28.34 1160.17,-35.46"/>
<polygon fill="blue" stroke="blue" points="1159.56,-38.91 1170.07,-37.58 1161.03,-32.06 1159.56,-38.91"/>
</g>
<!-- label0x56343ca242b0&#45;&gt;label0x56343ca24090 -->
<g id="edge5" class="edge">
<title>label0x56343ca242b0&#45;&gt;label0x56343ca24090</title>
<path fill="none" stroke="blue" d="M374.76,-60.68C366.29,-60.68 357.75,-60.68 349.21,-60.68"/>
<polygon fill="blue" stroke="blue" points="349.2,-57.18 339.2,-60.68 349.2,-64.18 349.2,-57.18"/>
</g>
<!-- label0x56343ca24330 -->
<g id="node3" class="node">
<title>label0x56343ca24330</title>
<path fill="#72eb6c" stroke="black" d="M735,-37.68C735,-37.68 1037,-37.68 1037,-37.68 1043,-37.68 1049,-43.68 1049,-49.68 1049,-49.68 1049,-71.68 1049,-71.68 1049,-77.68 1043,-83.68 1037,-83.68 1037,-83.68 735,-83.68 735,-83.68 729,-83.68 723,-77.68 723,-71.68 723,-71.68 723,-49.68 723,-49.68 723,-43.68 729,-37.68 735,-37.68"/>
<text text-anchor="middle" x="793.5" y="-68.48" font-family="Times,serif" font-size="14.00">index: 2</text>
<polyline fill="none" stroke="black" points="723,-60.68 864,-60.68"/>
<text text-anchor="middle" x="793.5" y="-45.48" font-family="Times,serif" font-size="14.00">addr: 0x56343ca24330</text>
<polyline fill="none" stroke="black" points="864,-37.68 864,-83.68"/>
<text text-anchor="middle" x="894.5" y="-56.98" font-family="Times,serif" font-size="14.00">val: 200</text>
<polyline fill="none" stroke="black" points="925,-37.68 925,-83.68"/>
<text text-anchor="middle" x="987" y="-68.48" font-family="Times,serif" font-size="14.00">n: 0x56343ca24310</text>
<polyline fill="none" stroke="black" points="925,-60.68 1049,-60.68"/>
<text text-anchor="middle" x="987" y="-45.48" font-family="Times,serif" font-size="14.00">p: 0x56343ca242b0</text>
</g>
<!-- label0x56343ca242b0&#45;&gt;label0x56343ca24330 -->
<g id="edge2" class="edge">
<title>label0x56343ca242b0&#45;&gt;label0x56343ca24330</title>
<path fill="none" stroke="#dce6e3" stroke-dasharray="5,2" d="M687.09,-47.27C698.93,-47.17 710.91,-47.15 722.8,-47.22"/>
</g>
<!-- label0x56343ca242b0&#45;&gt;label0x56343ca24330 -->
<g id="edge4" class="edge">
<title>label0x56343ca242b0&#45;&gt;label0x56343ca24330</title>
<path fill="none" stroke="red" d="M687.09,-60.68C695.6,-60.68 704.19,-60.68 712.75,-60.68"/>
<polygon fill="red" stroke="red" points="712.8,-64.18 722.8,-60.68 712.8,-57.18 712.8,-64.18"/>
</g>
<!-- label0x56343ca24330&#45;&gt;label0x56343ca242b0 -->
<g id="edge7" class="edge">
<title>label0x56343ca24330&#45;&gt;label0x56343ca242b0</title>
<path fill="none" stroke="blue" d="M722.8,-74.14C714.26,-74.19 705.67,-74.19 697.11,-74.15"/>
<polygon fill="blue" stroke="blue" points="697.11,-70.65 687.09,-74.09 697.07,-77.65 697.11,-70.65"/>
</g>
<!-- label0x56343ca24330&#45;&gt;label0x56343ca24310 -->
<g id="edge3" class="edge">
<title>label0x56343ca24330&#45;&gt;label0x56343ca24310</title>
<path fill="none" stroke="#dce6e3" stroke-dasharray="5,2" d="M1049.04,-47.22C1061,-47.15 1073.05,-47.17 1084.97,-47.27"/>
</g>
<!-- label0x56343ca24330&#45;&gt;label0x56343ca24310 -->
<g id="edge6" class="edge">
<title>label0x56343ca24330&#45;&gt;label0x56343ca24310</title>
<path fill="none" stroke="red" d="M1049.04,-60.68C1057.63,-60.68 1066.28,-60.68 1074.89,-60.68"/>
<polygon fill="red" stroke="red" points="1074.97,-64.18 1084.97,-60.68 1074.97,-57.18 1074.97,-64.18"/>
</g>
<!-- label0x56343ca24310&#45;&gt;label0x56343ca24090 -->
<g id="edge8" class="edge">
<title>label0x56343ca24310&#45;&gt;label0x56343ca24090</title>
<path fill="none" stroke="red" d="M1084.97,-40.59C1072.83,-39.03 1060.73,-37.68 1049,-36.68 750.54,-11.08 673.6,-12.74 375,-36.68 366.47,-37.36 357.76,-38.2 348.97,-39.16"/>
<polygon fill="red" stroke="red" points="348.57,-35.68 339.03,-40.29 349.36,-42.64 348.57,-35.68"/>
</g>
<!-- label0x56343ca24310&#45;&gt;label0x56343ca24330 -->
<g id="edge9" class="edge">
<title>label0x56343ca24310&#45;&gt;label0x56343ca24330</title>
<path fill="none" stroke="blue" d="M1084.97,-74.09C1076.4,-74.16 1067.77,-74.19 1059.15,-74.17"/>
<polygon fill="blue" stroke="blue" points="1059.05,-70.67 1049.04,-74.14 1059.02,-77.67 1059.05,-70.67"/>
</g>
</g>
</svg>
